<svg xmlns="http://www.w3.org/2000/svg" xmlns:xlink="http://www.w3.org/1999/xlink" viewBox="0 0 223.23 300.13"><defs><style>.cls-1{fill:#fff;}.cls-2{fill:url(#Degradado_sin_nombre);}.cls-3{fill:url(#Degradado_sin_nombre_2);}.cls-4{fill:url(#Degradado_sin_nombre_3);}.cls-5{fill:url(#Degradado_sin_nombre_4);}.cls-6{fill:#50e6ff;}.cls-7{fill:url(#Degradado_sin_nombre_5);}.cls-8{fill:#e6e6e6;}.cls-9{fill:#86d633;}.cls-10{fill:#ffca00;}.cls-11{fill:#b31b1b;}.cls-12{fill:#231f20;}.cls-13{fill:url(#Degradado_sin_nombre_6);}.cls-14{fill:#0072c6;}.cls-14,.cls-18{opacity:0.25;}.cls-14,.cls-15,.cls-16,.cls-17,.cls-18{isolation:isolate;}.cls-15{fill:#37c2b1;opacity:0.4;}.cls-16,.cls-18{fill:#3c3c41;}.cls-16{opacity:0.02;}.cls-17,.cls-19{fill:none;}.cls-17{stroke:#75757a;stroke-miterlimit:10;stroke-width:0.5px;opacity:0.5;}.cls-19{stroke:#231f20;}</style><linearGradient id="Degradado_sin_nombre" x1="27.5" y1="197.8" x2="27.5" y2="191.8" gradientTransform="matrix(1, 0, 0, -1, 0, 302)" gradientUnits="userSpaceOnUse"><stop offset="0" stop-color="#5ea0ef"/><stop offset="0.18" stop-color="#559cec"/><stop offset="0.47" stop-color="#3c91e5"/><stop offset="0.84" stop-color="#1380da"/><stop offset="1" stop-color="#0078d4"/></linearGradient><linearGradient id="Degradado_sin_nombre_2" x1="27.5" y1="205.8" x2="27.5" y2="199.8" xlink:href="#Degradado_sin_nombre"/><linearGradient id="Degradado_sin_nombre_3" x1="27.5" y1="213.8" x2="27.5" y2="207.8" xlink:href="#Degradado_sin_nombre"/><linearGradient id="Degradado_sin_nombre_4" x1="27.5" y1="221.8" x2="27.5" y2="215.8" xlink:href="#Degradado_sin_nombre"/><linearGradient id="Degradado_sin_nombre_5" x1="90.83" y1="284.78" x2="90.83" y2="267.78" gradientTransform="matrix(1, 0, 0, -1, 0, 302)" gradientUnits="userSpaceOnUse"><stop offset="0" stop-color="#b3b3b3"/><stop offset="0.47" stop-color="#a2a2a2"/><stop offset="1" stop-color="#949494"/></linearGradient><linearGradient id="Degradado_sin_nombre_6" x1="180.83" y1="284.78" x2="180.83" y2="267.78" xlink:href="#Degradado_sin_nombre_5"/></defs><title>OJ105266024</title><g id="Capa_1" data-name="Capa 1"><g id="Shapes"><rect class="cls-1" width="223.23" height="300.13"/><path class="cls-1" d="M11.5,104.2h32v6h-32Zm14,3a1.5,1.5,0,1,1-1.5-1.5,1.5,1.5,0,0,1,1.5,1.5Z"/><path class="cls-2" d="M11.5,104.2h32v6h-32Zm14,3a1.5,1.5,0,1,1-1.5-1.5,1.5,1.5,0,0,1,1.5,1.5Z"/><path class="cls-1" d="M11.5,96.2h32v6h-32Zm14,3A1.5,1.5,0,1,1,24,97.7a1.5,1.5,0,0,1,1.5,1.5Z"/><path class="cls-3" d="M11.5,96.2h32v6h-32Zm14,3A1.5,1.5,0,1,1,24,97.7a1.5,1.5,0,0,1,1.5,1.5Z"/><path class="cls-1" d="M11.5,88.2h32v6h-32Zm14,3A1.5,1.5,0,1,1,24,89.7a1.5,1.5,0,0,1,1.5,1.5Z"/><path class="cls-4" d="M11.5,88.2h32v6h-32Zm14,3A1.5,1.5,0,1,1,24,89.7a1.5,1.5,0,0,1,1.5,1.5Z"/><path class="cls-1" d="M11.5,80.2h32v6h-32Zm14,3A1.5,1.5,0,1,1,24,81.7a1.5,1.5,0,0,1,1.5,1.5Z"/><path class="cls-5" d="M11.5,80.2h32v6h-32Zm14,3A1.5,1.5,0,1,1,24,81.7a1.5,1.5,0,0,1,1.5,1.5Z"/><path class="cls-6" d="M15,108.7a1.5,1.5,0,1,0-1.5-1.5A1.5,1.5,0,0,0,15,108.7Z"/><path class="cls-6" d="M19.5,108.7a1.5,1.5,0,1,0-1.5-1.5A1.5,1.5,0,0,0,19.5,108.7Z"/><path class="cls-6" d="M15,100.7a1.5,1.5,0,1,0-1.5-1.5A1.5,1.5,0,0,0,15,100.7Z"/><path class="cls-6" d="M19.5,100.7A1.5,1.5,0,1,0,18,99.2,1.5,1.5,0,0,0,19.5,100.7Z"/><path class="cls-6" d="M15,92.7a1.5,1.5,0,1,0-1.5-1.5A1.5,1.5,0,0,0,15,92.7Z"/><path class="cls-6" d="M19.5,92.7A1.5,1.5,0,1,0,18,91.2,1.5,1.5,0,0,0,19.5,92.7Z"/><path class="cls-6" d="M15,84.7a1.5,1.5,0,1,0-1.5-1.5A1.5,1.5,0,0,0,15,84.7Z"/><path class="cls-6" d="M19.5,84.7A1.5,1.5,0,1,0,18,83.2,1.5,1.5,0,0,0,19.5,84.7Z"/><path class="cls-1" d="M23.87,84.7a1.5,1.5,0,1,0-1.5-1.5A1.5,1.5,0,0,0,23.87,84.7Z"/><path class="cls-1" d="M23.87,92.7a1.5,1.5,0,1,0-1.5-1.5A1.5,1.5,0,0,0,23.87,92.7Z"/><path class="cls-1" d="M23.87,100.7a1.5,1.5,0,1,0-1.5-1.5A1.5,1.5,0,0,0,23.87,100.7Z"/><path class="cls-1" d="M23.87,108.7a1.5,1.5,0,1,0-1.5-1.5A1.5,1.5,0,0,0,23.87,108.7Z"/><rect class="cls-1" x="49.43" y="17.22" width="82.8" height="17" rx="2"/><rect class="cls-7" x="49.43" y="17.22" width="82.8" height="17" rx="2"/><path class="cls-8" d="M130.23,18.22a1,1,0,0,1,1,1v13a1,1,0,0,1-1,1H51.43a1,1,0,0,1-1-1v-13a1,1,0,0,1,1-1h78.8m0-2H51.43a3,3,0,0,0-3,3v13a3,3,0,0,0,3,3h78.8a3,3,0,0,0,3-3v-13A3,3,0,0,0,130.23,16.22Z"/><circle class="cls-9" cx="111.32" cy="21.95" r="1.09"/><circle class="cls-10" cx="117.73" cy="21.95" r="1.09"/><circle class="cls-11" cx="124.13" cy="21.95" r="1.09"/><rect class="cls-8" x="110.23" y="24.7" width="15" height="6.02"/><polygon class="cls-12" points="60.63 22.14 60.63 20.85 56.44 20.85 56.44 22.14 55.03 22.14 55.03 24.7 62.03 24.7 62.03 22.14 60.63 22.14"/><polygon class="cls-12" points="71.1 22.14 71.1 20.85 66.91 20.85 66.91 22.14 65.5 22.14 65.5 24.7 72.5 24.7 72.5 22.14 71.1 22.14"/><polygon class="cls-12" points="81.57 22.14 81.57 20.85 77.38 20.85 77.38 22.14 75.97 22.14 75.97 24.7 82.97 24.7 82.97 22.14 81.57 22.14"/><polygon class="cls-12" points="92.04 22.14 92.04 20.85 87.85 20.85 87.85 22.14 86.44 22.14 86.44 24.7 93.44 24.7 93.44 22.14 92.04 22.14"/><polygon class="cls-12" points="102.5 22.14 102.5 20.85 98.31 20.85 98.31 22.14 96.91 22.14 96.91 24.7 103.91 24.7 103.91 22.14 102.5 22.14"/><polygon class="cls-12" points="60.63 28 60.63 26.72 56.44 26.72 56.44 28 55.03 28 55.03 30.57 62.03 30.57 62.03 28 60.63 28"/><polygon class="cls-12" points="71.1 28 71.1 26.72 66.91 26.72 66.91 28 65.5 28 65.5 30.57 72.5 30.57 72.5 28 71.1 28"/><polygon class="cls-12" points="81.57 28 81.57 26.72 77.38 26.72 77.38 28 75.97 28 75.97 30.57 82.97 30.57 82.97 28 81.57 28"/><polygon class="cls-12" points="92.04 28 92.04 26.72 87.85 26.72 87.85 28 86.44 28 86.44 30.57 93.44 30.57 93.44 28 92.04 28"/><polygon class="cls-12" points="102.5 28 102.5 26.72 98.31 26.72 98.31 28 96.91 28 96.91 30.57 103.91 30.57 103.91 28 102.5 28"/><rect class="cls-1" x="139.43" y="17.22" width="82.8" height="17" rx="2"/><rect class="cls-13" x="139.43" y="17.22" width="82.8" height="17" rx="2"/><path class="cls-8" d="M220.23,18.22a1,1,0,0,1,1,1v13a1,1,0,0,1-1,1h-78.8a1,1,0,0,1-1-1v-13a1,1,0,0,1,1-1h78.8m0-2h-78.8a3,3,0,0,0-3,3v13a3,3,0,0,0,3,3h78.8a3,3,0,0,0,3-3v-13A3,3,0,0,0,220.23,16.22Z"/><circle class="cls-9" cx="201.32" cy="21.95" r="1.09"/><circle class="cls-10" cx="207.73" cy="21.95" r="1.09"/><circle class="cls-11" cx="214.14" cy="21.95" r="1.09"/><rect class="cls-8" x="200.23" y="24.7" width="15" height="6.02"/><polygon class="cls-12" points="150.63 22.14 150.63 20.85 146.44 20.85 146.44 22.14 145.03 22.14 145.03 24.7 152.03 24.7 152.03 22.14 150.63 22.14"/><polygon class="cls-12" points="161.1 22.14 161.1 20.85 156.91 20.85 156.91 22.14 155.5 22.14 155.5 24.7 162.5 24.7 162.5 22.14 161.1 22.14"/><polygon class="cls-12" points="171.57 22.14 171.57 20.85 167.38 20.85 167.38 22.14 165.97 22.14 165.97 24.7 172.97 24.7 172.97 22.14 171.57 22.14"/><polygon class="cls-12" points="182.04 22.14 182.04 20.85 177.85 20.85 177.85 22.14 176.44 22.14 176.44 24.7 183.44 24.7 183.44 22.14 182.04 22.14"/><polygon class="cls-12" points="192.5 22.14 192.5 20.85 188.31 20.85 188.31 22.14 186.91 22.14 186.91 24.7 193.91 24.7 193.91 22.14 192.5 22.14"/><polygon class="cls-12" points="150.63 28 150.63 26.72 146.44 26.72 146.44 28 145.03 28 145.03 30.57 152.03 30.57 152.03 28 150.63 28"/><polygon class="cls-12" points="161.1 28 161.1 26.72 156.91 26.72 156.91 28 155.5 28 155.5 30.57 162.5 30.57 162.5 28 161.1 28"/><polygon class="cls-12" points="171.57 28 171.57 26.72 167.38 26.72 167.38 28 165.97 28 165.97 30.57 172.97 30.57 172.97 28 171.57 28"/><polygon class="cls-12" points="182.04 28 182.04 26.72 177.85 26.72 177.85 28 176.44 28 176.44 30.57 183.44 30.57 183.44 28 182.04 28"/><polygon class="cls-12" points="192.5 28 192.5 26.72 188.31 26.72 188.31 28 186.91 28 186.91 30.57 193.91 30.57 193.91 28 192.5 28"/><rect class="cls-1" x="58.33" y="80.2" width="155" height="20"/><rect class="cls-14" x="58.33" y="80.2" width="155" height="20"/><rect class="cls-1" x="58.33" y="255.2" width="155" height="20"/><rect class="cls-15" x="58.33" y="255.2" width="155" height="20"/><rect class="cls-1" x="58.33" y="105.2" width="155" height="20"/><rect class="cls-14" x="58.33" y="105.2" width="155" height="20"/><rect class="cls-1" x="58.33" y="130.2" width="155" height="20"/><rect class="cls-16" x="58.33" y="130.2" width="155" height="20"/><rect class="cls-17" x="58.33" y="130.2" width="155" height="20"/><rect class="cls-1" x="58.33" y="155.2" width="155" height="20"/><rect class="cls-18" x="58.33" y="155.2" width="155" height="20"/><rect class="cls-1" x="58.33" y="180.2" width="155" height="20"/><rect class="cls-18" x="58.33" y="180.2" width="155" height="20"/><rect class="cls-1" x="58.33" y="205.2" width="155" height="20"/><rect class="cls-18" x="58.33" y="205.2" width="155" height="20"/><rect class="cls-1" x="58.33" y="230.2" width="155" height="20"/><rect class="cls-18" x="58.33" y="230.2" width="155" height="20"/><line class="cls-19" x1="63.99" y1="35.15" x2="63.99" y2="105.2"/><line class="cls-19" x1="208.3" y1="35.15" x2="208.3" y2="105.2"/><line class="cls-19" x1="73.99" y1="35.15" x2="73.99" y2="80.2"/><line class="cls-19" x1="198.77" y1="35.15" x2="198.77" y2="80.2"/></g></g><g id="Capa_2" data-name="Capa 2"><path d="M109.47,9a2,2,0,0,0,0,.34.66.66,0,0,0,0,.13v.09a.22.22,0,0,1,0,.14l-.19.12a18.27,18.27,0,0,1-2.39,1.08,1.73,1.73,0,0,0-.44.21.28.28,0,0,1-.15.08s-.08,0-.13-.13a3.71,3.71,0,0,1-.24-.65,5.59,5.59,0,0,0,1.14-.29l.34-.12V6.25h-.23l-1,0c-.07,0-.1,0-.1-.09V5.67c0-.06,0-.09.1-.09l1,0h.23V4.2a10.74,10.74,0,0,0-.1-1.66,7.09,7.09,0,0,1,.76.07c.09,0,.14.05.14.11a1.72,1.72,0,0,1,0,.2A7.55,7.55,0,0,0,108,4.17V5.6h.06l1,0c.07,0,.1,0,.1.09v.51c0,.06,0,.09-.1.09l-1,0H108V9.69C108.57,9.45,109.05,9.21,109.47,9Zm7.28,2.37a3.21,3.21,0,0,1-.17.86,1,1,0,0,1-.31.41,2.31,2.31,0,0,1-1.37.29,4.73,4.73,0,0,1-1.2-.11c-.29-.07-.43-.33-.43-.77V10.16h-1.2A3.48,3.48,0,0,1,111,12.24a5.13,5.13,0,0,1-2,.9l-.17,0c-.06,0-.13-.06-.2-.18a1.25,1.25,0,0,0-.35-.41,5.27,5.27,0,0,0,2.3-.84,2.35,2.35,0,0,0,.81-1.57l-.91,0h-.28a.08.08,0,0,1-.09-.09l0-1V7.83l0-1a.08.08,0,0,1,.09-.09l1.54,0h2.35l1.53,0a.08.08,0,0,1,.09.09l0,1V9.08l0,1a.08.08,0,0,1-.09.09l-1.53,0H114v1.56c0,.28.06.44.19.48a4,4,0,0,0,.77.05,1.61,1.61,0,0,0,.89-.17.76.76,0,0,0,.25-.48,6.17,6.17,0,0,0,.06-.82,1.44,1.44,0,0,0,.47.25c.11.05.17.1.17.16S116.76,11.25,116.75,11.34Zm0-5.46c0,.06,0,.09-.1.09L115,6h-3.74l-1.67,0c-.06,0-.1,0-.1-.09V5.47a.09.09,0,0,1,.1-.1l1.67,0h.09a5.25,5.25,0,0,0-.41-.88.09.09,0,0,1,0-.06s0-.06.14-.09l.31-.1.1,0s0,0,.07.07A5.7,5.7,0,0,1,112,5.4h1.66c.07-.14.17-.37.3-.7a2.28,2.28,0,0,0,.14-.5,3.53,3.53,0,0,1,.62.15c.08,0,.12.07.12.11a.17.17,0,0,1-.07.13l-.16.22-.3.59H115l1.67,0a.09.09,0,0,1,.1.1ZM116.22,4a.08.08,0,0,1-.09.09l-1.62,0h-3.06l-1.62,0c-.07,0-.1,0-.1-.08V3.56a.09.09,0,0,1,.1-.1l1.62,0h1V3.31a4.73,4.73,0,0,0-.08-1l.76.06c.1,0,.14,0,.14.1a.47.47,0,0,1-.07.2,2.56,2.56,0,0,0,0,.64v.18h1.4l1.62,0c.06,0,.09,0,.09.1ZM115,8.16V7.3h-4.21v.86Zm0,1.45V8.7h-4.21v.91Z"/><path d="M128.79,9.59a1.71,1.71,0,0,0-.35.49c-.06.13-.11.19-.15.19l-.18,0a8.25,8.25,0,0,1-4.13-3h-1.49a7.65,7.65,0,0,1-4,3l-.18.06c-.05,0-.11-.07-.17-.2a1.35,1.35,0,0,0-.31-.43,6.93,6.93,0,0,0,3.84-2.43h-.49l-1.72,0c-.06,0-.09,0-.09-.1l0-1.17V4.11l0-1.17c0-.07,0-.1.09-.1l1.72,0h4.39l1.72,0c.06,0,.09,0,.09.1l0,1.17V6l0,1.17c0,.07,0,.1-.09.1l-1.72,0h-.78a6.36,6.36,0,0,0,1.77,1.45A10.44,10.44,0,0,0,128.79,9.59ZM122.39,9a.84.84,0,0,1,0,.1.64.64,0,0,1,0,.1s0,.22-.08.54a3.67,3.67,0,0,1-.75,2A4.3,4.3,0,0,1,119.62,13l-.17.06s-.1-.06-.19-.18a1.09,1.09,0,0,0-.41-.39,4.08,4.08,0,0,0,2.08-1.16,2.7,2.7,0,0,0,.58-1.54c0-.12,0-.25,0-.37a3.1,3.1,0,0,0-.06-.64,6.06,6.06,0,0,1,.73.09C122.33,8.9,122.39,8.94,122.39,9ZM123,4.76V3.48h-2.87V4.76Zm0,1.9V5.33h-2.87V6.66Zm3.66-1.9V3.48h-3V4.76Zm0,1.9V5.33h-3V6.66ZM125.31,9a1,1,0,0,1-.06.22,7.85,7.85,0,0,0,0,1.15v1.11l0,1.5c0,.07,0,.1-.11.1h-.57c-.06,0-.09,0-.09-.1l0-1.5V10.38a10,10,0,0,0-.08-1.58,7.62,7.62,0,0,1,.78.07C125.27,8.88,125.31,8.92,125.31,9Z"/><path d="M133.71,6.61H130V5.83h7.61v.78h-3a21.15,21.15,0,0,1-.11,2.2,4.7,4.7,0,0,1-.29,1.15,5.36,5.36,0,0,1-2.87,2.76l-.6-.68a4.42,4.42,0,0,0,2.61-2.42A9.68,9.68,0,0,0,133.71,6.61Zm-3-3.4h5.13V4h-5.13ZM136,2.32l.61-.23a12.9,12.9,0,0,1,.89,2l-.65.27A11.49,11.49,0,0,0,136,2.32Zm1.34-.4.6-.22a9.81,9.81,0,0,1,.85,2l-.62.25A11.73,11.73,0,0,0,137.3,1.92Z"/><path d="M139.19,12a12.37,12.37,0,0,0,1.67-3.82,29.21,29.21,0,0,0,.74-4.71l1,.09a28.33,28.33,0,0,1-1,5.44A12.78,12.78,0,0,1,140,12.42Zm5.12-8.46.91-.08a22.32,22.32,0,0,0,2.5,8.48l-.89.51A25.19,25.19,0,0,1,144.31,3.51Zm1.17-.84.62-.24a14.51,14.51,0,0,1,.88,2l-.64.26A12,12,0,0,0,145.48,2.67Zm1.34-.41.6-.21a9.7,9.7,0,0,1,.85,2l-.62.26A11.87,11.87,0,0,0,146.82,2.26Z"/><path d="M152.93,6.31a28.92,28.92,0,0,1-3.37,2.25l-.49-.69a21.78,21.78,0,0,0,3.74-2.58,16.5,16.5,0,0,0,2.66-2.8l.79.49a19.27,19.27,0,0,1-2.4,2.56v7.14h-.93Z"/><path d="M162.31,8.77A10.89,10.89,0,0,1,158,12.56l-.52-.69a10.66,10.66,0,0,0,3.92-3.37,12.07,12.07,0,0,0,1.75-4.33h-5v-.8h6.23A16.17,16.17,0,0,1,162.78,8a27.54,27.54,0,0,1,2.79,4l-.88.56A21.94,21.94,0,0,0,162.31,8.77Z"/><path d="M114.77,54.59a7.27,7.27,0,0,0,3.06-1.9,8.6,8.6,0,0,0,1.86-2.83l.69.66a9.23,9.23,0,0,1-2.56,3.39,10.72,10.72,0,0,1-3.42,1.84l-.55-.39V46h.92Z"/><path d="M125.28,49.31a28.92,28.92,0,0,1-3.37,2.25l-.49-.69a22.18,22.18,0,0,0,3.74-2.58,16.5,16.5,0,0,0,2.66-2.8l.79.49a19.91,19.91,0,0,1-2.4,2.56v7.14h-.93Z"/><path d="M133.43,47.9l4.63-.89.42.53a13.46,13.46,0,0,1-2,4.4l-.77-.47a10.58,10.58,0,0,0,1.68-3.53l-3.79.74,1.47,6.92-.89.17-1.47-6.92-2.56.51-.17-.78,2.56-.49L132,45.67l.92-.16Z"/><path d="M139.73,50.28h6.53v.89h-6.53Z"/><path d="M155.73,52.82a2.46,2.46,0,0,1-.21,1,2.19,2.19,0,0,1-.61.8,2.79,2.79,0,0,1-.93.51,4.07,4.07,0,0,1-3.11-.27v-1a3.07,3.07,0,0,0,1.94.67,2.49,2.49,0,0,0,.8-.12,1.78,1.78,0,0,0,.61-.32,1.39,1.39,0,0,0,.39-.51,1.6,1.6,0,0,0,.14-.67c0-1.1-.78-1.65-2.35-1.65h-.69v-.81h.66c1.38,0,2.07-.52,2.07-1.55s-.52-1.43-1.58-1.43a2.7,2.7,0,0,0-1.67.6v-.93a3.66,3.66,0,0,1,1.91-.48,3.22,3.22,0,0,1,1,.14,2.47,2.47,0,0,1,.73.41,1.87,1.87,0,0,1,.47.64,1.92,1.92,0,0,1,.17.81,2,2,0,0,1-1.68,2.13v0a2.78,2.78,0,0,1,.79.2,2.31,2.31,0,0,1,.63.42,2.11,2.11,0,0,1,.41.61A1.92,1.92,0,0,1,155.73,52.82Z"/><path d="M157.92,50.37a.62.62,0,0,1-.46-.19.66.66,0,0,1-.19-.46.64.64,0,0,1,.19-.46.62.62,0,0,1,.46-.19.63.63,0,0,1,.47.19.6.6,0,0,1,.19.46.62.62,0,0,1-.19.46A.63.63,0,0,1,157.92,50.37Zm0,5a.66.66,0,0,1-.46-.19.68.68,0,0,1-.19-.47.66.66,0,0,1,.19-.46.64.64,0,0,1,.93,0,.62.62,0,0,1,.19.46.64.64,0,0,1-.19.47A.67.67,0,0,1,157.92,55.33Z"/><path d="M85,68.42V60h2.39a2.63,2.63,0,0,1,1.73.53,1.72,1.72,0,0,1,.64,1.39,2,2,0,0,1-.39,1.24,2.07,2.07,0,0,1-1.06.75v0a2.13,2.13,0,0,1,1.36.64A2,2,0,0,1,90.13,66a2.17,2.17,0,0,1-.78,1.74,2.84,2.84,0,0,1-1.95.67Zm1-7.51v2.71h1a1.93,1.93,0,0,0,1.27-.39,1.34,1.34,0,0,0,.46-1.1c0-.81-.54-1.22-1.61-1.22Zm0,3.6v3h1.33a2,2,0,0,0,1.35-.41A1.4,1.4,0,0,0,89.1,66c0-1-.68-1.49-2-1.49Z"/><path d="M98.11,67.85a5.67,5.67,0,0,1-2.81.71,3.86,3.86,0,0,1-2.91-1.16,4.26,4.26,0,0,1-1.11-3.07,4.37,4.37,0,0,1,1.23-3.2,4.2,4.2,0,0,1,3.13-1.25,5.42,5.42,0,0,1,2.3.44v1.09a4.4,4.4,0,0,0-2.41-.64,3,3,0,0,0-2.32,1,4.07,4.07,0,0,0-.06,5,3,3,0,0,0,2.27.91,3.43,3.43,0,0,0,1.71-.4V64.93H95.29V64h2.82Z"/><path d="M101.05,65.25v3.17h-1V60h2.31a3.08,3.08,0,0,1,2.09.65,2.34,2.34,0,0,1,.74,1.86,2.52,2.52,0,0,1-.82,2,3.14,3.14,0,0,1-2.22.77Zm0-4.34v3.44h1a2.32,2.32,0,0,0,1.56-.46,1.67,1.67,0,0,0,.53-1.32c0-1.11-.65-1.66-2-1.66Z"/><path d="M113.34,60.36q0-1,0-1.59h.86v1.55c1,0,1.93-.11,2.89-.23v.75c-.88.1-1.84.18-2.88.22l0,1.72c1.11-.05,2-.13,2.79-.22v.74c-.88.1-1.8.16-2.77.2,0,.19,0,.6,0,1.24,0,.43,0,.77,0,1a8.56,8.56,0,0,1,3.19,2l-.59.74a8.25,8.25,0,0,0-2.59-1.93v.13a1.87,1.87,0,0,1-2.12,2.11,2.86,2.86,0,0,1-1.73-.42,1.6,1.6,0,0,1,.17-2.48,2.74,2.74,0,0,1,1.57-.42,8.2,8.2,0,0,1,1.26.08c0-.48,0-1.17-.08-2.08q-1.56,0-3.12,0v-.72c1,0,2,0,3.11,0q0-.33,0-.93c0-.38,0-.65,0-.81-1.21,0-2.29,0-3.26,0v-.73C111.05,60.38,112.13,60.39,113.34,60.36Zm.14,6a4.41,4.41,0,0,0-1.18-.16c-1,0-1.57.31-1.57,1s.48.91,1.42.91,1.33-.53,1.33-1.6Z"/><path d="M120.86,61.52c-.66,0-1.34,0-2,0v-.75c.8,0,1.52,0,2.15-.06.11-.81.19-1.51.23-2.09l.89.08c-.07.58-.16,1.24-.28,2,.78,0,1.66-.12,2.65-.21l0,.76c-.82.08-1.75.15-2.79.2a44.7,44.7,0,0,1-1.9,7.31L119,68.5A41.66,41.66,0,0,0,120.86,61.52Zm1.46,4.61.75.06a2.93,2.93,0,0,0-.07.67c0,.48.14.79.44.93a3.59,3.59,0,0,0,1.33.16,14.65,14.65,0,0,0,1.86-.09l.05.82a17.39,17.39,0,0,1-1.75.07,4,4,0,0,1-2.14-.4,1.47,1.47,0,0,1-.55-1.31A4.81,4.81,0,0,1,122.32,66.13Zm.61-2.57v-.79a35.17,35.17,0,0,1,3.65-.17v.77A27.58,27.58,0,0,0,122.93,63.56Z"/><path d="M130.14,59.13a35.46,35.46,0,0,0-.72,5.89,28.61,28.61,0,0,0,.29,3.72l-.84.08c-.18-1.78-.28-3.06-.28-3.82a27.19,27.19,0,0,1,.25-3.16c.13-1,.28-1.93.45-2.78Zm4.86,2.8c0,1.58.05,2.92.11,4a6.07,6.07,0,0,1,2.11,1.57l-.58.72a5.45,5.45,0,0,0-1.53-1.4,1.81,1.81,0,0,1-.6,1.51,2.15,2.15,0,0,1-1.42.43c-1.38,0-2.07-.54-2.07-1.63a1.37,1.37,0,0,1,.62-1.15,2.3,2.3,0,0,1,1.36-.39,6.27,6.27,0,0,1,1.27.13c-.05-1.07-.08-2.33-.1-3.78-1.09,0-2.18,0-3.27,0v-.76c1,0,2,0,3.26,0V59H135c0,.48,0,1.2,0,2.16.5,0,1.15-.08,1.93-.15v.75C136.36,61.84,135.72,61.89,135,61.93Zm-.73,4.63a3.68,3.68,0,0,0-1.32-.24,1.53,1.53,0,0,0-.83.22.69.69,0,0,0-.34.61q0,.9,1.29.9a1.09,1.09,0,0,0,1-.45,1.59,1.59,0,0,0,.24-.92Z"/><path d="M143.46,63a.08.08,0,0,1-.09.09L142,63h-2l-1.43,0c-.06,0-.08,0-.08-.09v-.42c0-.07,0-.1.08-.1l1.43,0h.8v-.85h-.36l-1.2,0c-.06,0-.09,0-.09-.1v-.41c0-.05,0-.08.09-.08l1.2,0h.36v-.79h-.53l-1.34,0a.09.09,0,0,1-.1-.1v-.42c0-.06,0-.09.1-.09l1.34,0h.53v0a7.34,7.34,0,0,0-.08-1.28,5.82,5.82,0,0,1,.73.07c.1,0,.15,0,.15.1a.72.72,0,0,1-.08.22,3.72,3.72,0,0,0-.06.89v0h.53l1.34,0a.08.08,0,0,1,.09.09v.42c0,.06,0,.1-.09.1l-1.34,0h-.53v.79h.33l1.21,0c.06,0,.09,0,.09.08v.41c0,.06,0,.1-.09.1l-1.21,0h-.33v.85H142l1.42,0c.06,0,.09,0,.09.1Zm-.49.88,0,1.41V66.7l0,1.52a.87.87,0,0,1-.26.73,1.16,1.16,0,0,1-.4.16,4.61,4.61,0,0,1-.75,0,.47.47,0,0,1-.23,0s0-.09-.08-.21a1.7,1.7,0,0,0-.18-.44c.35,0,.6,0,.77,0s.33,0,.39-.11a.52.52,0,0,0,.07-.32v-.91h-2.48v.66l0,1.35s0,.08-.09.08h-.51c-.06,0-.09,0-.09-.08l0-1.32V65.18l0-1.35a.08.08,0,0,1,.09-.09l1.19,0h1.26l1.19,0C142.94,63.74,143,63.77,143,63.83Zm-.68,1.36v-.85h-2.48v.85Zm0,1.42v-.86h-2.48v.86Zm7-2.56a.08.08,0,0,1-.09.09h-.24l-.54,0V65.3l0,1.25c0,.06,0,.08-.1.08h-.48c-.06,0-.1,0-.1-.08v-.47h-1.42V68a2,2,0,0,1-.07.64.66.66,0,0,1-.23.32,2,2,0,0,1-1.13.21h-.19c-.13,0-.2,0-.22,0s-.05-.08-.08-.2a1.34,1.34,0,0,0-.23-.48,6.86,6.86,0,0,0,.88,0c.24,0,.4,0,.47-.13a.64.64,0,0,0,.12-.45v-1.8h-.3l-1.4,0c-.06,0-.09,0-.09-.1v-.44c0-.07,0-.1.09-.1l1.4,0h.3V64.12h-.55l-1.54,0c-.07,0-.1,0-.1-.09v-.46c0-.06,0-.09.1-.09l1.54,0h.55V62.2h-.2l-1.28,0c-.06,0-.09,0-.09-.08v-.46c0-.06,0-.1.09-.1l1.28,0h.45a7.68,7.68,0,0,0,.81-1.44h-1.54a8.91,8.91,0,0,1-1.29,1.56c-.08.08-.13.12-.17.12s-.07,0-.15-.12a2.07,2.07,0,0,0-.37-.27A7.09,7.09,0,0,0,145,59.18a3.06,3.06,0,0,0,.27-.76c.3.08.52.14.65.19s.13.06.13.11,0,.11-.11.17a2.7,2.7,0,0,0-.28.46l-.14.26h1.36a.4.4,0,0,0,.15,0,.37.37,0,0,1,.11,0,.65.65,0,0,1,.34.2c.14.12.21.22.21.28a.19.19,0,0,1-.12.18.61.61,0,0,0-.22.28,12.83,12.83,0,0,1-.69,1.14H147l1.32,0a.09.09,0,0,1,.1.1l0,1.25v.58l.78,0a.08.08,0,0,1,.09.09Zm-1.52-.53V62.2h-1.42v1.32Zm0,2V64.12h-1.42V65.5Z"/><path d="M154.6,68.49c0,.06,0,.09-.1.09H154a.08.08,0,0,1-.09-.09V67.8h-2.3v1c0,.06,0,.09-.1.09H151a.08.08,0,0,1-.09-.09l0-3.45v-2l0-2.62c0-.06,0-.1.09-.1l1.06,0a12.78,12.78,0,0,0,.45-1.39,3.19,3.19,0,0,0,.08-.7,4.46,4.46,0,0,1,.78.18c.08,0,.13.07.13.13a.22.22,0,0,1-.09.16.89.89,0,0,0-.19.35c-.18.53-.34,1-.47,1.27h.62l1.16,0a.09.09,0,0,1,.1.1l0,2.32v2.21Zm-.71-4.72V61.18h-2.3v2.59Zm0,3.39V64.41h-2.3v2.75Zm6.84-6.44q0,.3,0,.9a37.41,37.41,0,0,1-.38,5.85,3,3,0,0,1-.51,1.4,1.22,1.22,0,0,1-1,.41q-.5,0-1.14-.06a.41.41,0,0,1-.2,0,.68.68,0,0,1-.06-.22,1.56,1.56,0,0,0-.21-.55,9.73,9.73,0,0,0,1.43.15h.14c.4,0,.68-.45.84-1.34A39.2,39.2,0,0,0,160,61.3h-3.51a12,12,0,0,1-1,1.6q-.11.15-.15.15s-.1,0-.18-.12a1.52,1.52,0,0,0-.39-.29,11,11,0,0,0,1.69-3.11,4.43,4.43,0,0,0,.22-1.07,6,6,0,0,1,.75.22c.12,0,.18.1.18.15a.33.33,0,0,1-.14.22,2.1,2.1,0,0,0-.27.56c-.12.31-.26.65-.43,1h2.54l1.31,0A.1.1,0,0,1,160.73,60.72Zm-2.39,4.63a.2.2,0,0,1,0,.08s-.05.07-.13.13l-.34.25-.13.06s0,0-.06-.06a9.57,9.57,0,0,0-1.51-2.31.15.15,0,0,1,0-.06s0-.06.12-.12l.3-.19s.08-.06.11-.06l.06,0A8.94,8.94,0,0,1,158.34,65.35Z"/><path d="M165,59.29q0,3.41-.12,4.92a9.42,9.42,0,0,1-.34,2,5.63,5.63,0,0,1-1.75,2.59l-.7-.55a4.41,4.41,0,0,0,1.63-2.38,11.23,11.23,0,0,0,.3-2.47c0-.89.06-2.26.06-4.12Zm2.55,8.13a9,9,0,0,0,3.12-4.12l.61.8a10.93,10.93,0,0,1-4.13,4.71l-.51-.27V59.2h.91Z"/><path d="M172.2,63.5h6.53v.89H172.2Z"/><path d="M182.41,63.2v5.7h-.93V58.83h.93v3.49a18.55,18.55,0,0,1,4.57,1.9l-.46.87A15.12,15.12,0,0,0,182.41,63.2Z"/><path d="M107.1,86v5.88h-.93V86Zm-.34,9a4.84,4.84,0,0,0,3-1.55,5.29,5.29,0,0,0,.76-3.14V85.9h.93v4.5a5.42,5.42,0,0,1-1.16,3.82,5.81,5.81,0,0,1-3.08,1.47Z"/><path d="M113.59,90.28h6.53v.89h-6.53Z"/><path d="M121.44,86.48h6.61q0,4.29-1.55,6.43a8.21,8.21,0,0,1-4,2.79L122,95a7.32,7.32,0,0,0,3.9-2.78A9,9,0,0,0,127,87.28h-5.6Z"/><path d="M137.54,91.77a10.8,10.8,0,0,1-4.28,3.79l-.53-.69a10.5,10.5,0,0,0,3.92-3.37,12.08,12.08,0,0,0,1.76-4.33h-5v-.8h6.22A15.87,15.87,0,0,1,138,91a27.3,27.3,0,0,1,2.8,4l-.89.57A20.79,20.79,0,0,0,137.54,91.77Z"/><path d="M145.81,89.31a28.92,28.92,0,0,1-3.37,2.25l-.5-.69a22.26,22.26,0,0,0,3.75-2.58,16.42,16.42,0,0,0,2.65-2.8l.79.49a18.6,18.6,0,0,1-2.4,2.56v7.14h-.92Z"/><path d="M150.59,88.7l.76-.34a16,16,0,0,1,1,2.62l-.79.31A14.46,14.46,0,0,0,150.59,88.7Zm1.33,6.5a6.06,6.06,0,0,0,3.21-2.64,10.1,10.1,0,0,0,1.05-4.43l.88.19A11.42,11.42,0,0,1,155.85,93a5.66,5.66,0,0,1-1.43,1.68,8.55,8.55,0,0,1-2,1.13Zm.93-7,.76-.31a15.87,15.87,0,0,1,.88,2.57l-.79.33A11.74,11.74,0,0,0,152.85,88.18Z"/><path d="M163.17,89.57h3.06v.8h-3.06a6.29,6.29,0,0,1-.94,3.65,5.68,5.68,0,0,1-2.37,1.67l-.6-.65a4.73,4.73,0,0,0,2.38-1.82,5.87,5.87,0,0,0,.6-2.85h-3.72v-.8h3.72V87.41q-1.47.28-2.91.42l-.33-.77a25,25,0,0,0,6-1.22l.44.76c-.73.24-1.5.44-2.31.62Z"/><path d="M107.1,110.77v5.88h-.93v-5.88Zm-.34,9a4.84,4.84,0,0,0,3-1.55,5.29,5.29,0,0,0,.76-3.14V110.7h.93v4.5a5.4,5.4,0,0,1-1.16,3.82,5.81,5.81,0,0,1-3.08,1.47Z"/><path d="M113.59,115.08h6.53V116h-6.53Z"/><path d="M121.44,111.28h6.61q0,4.29-1.55,6.43a8.21,8.21,0,0,1-4,2.79l-.5-.72a7.32,7.32,0,0,0,3.9-2.78,9,9,0,0,0,1.17-4.92h-5.6Z"/><path d="M137.54,116.57a10.8,10.8,0,0,1-4.28,3.79l-.53-.69a10.5,10.5,0,0,0,3.92-3.37,12.08,12.08,0,0,0,1.76-4.33h-5v-.8h6.22a15.87,15.87,0,0,1-1.58,4.59,27.3,27.3,0,0,1,2.8,4l-.89.57A20.79,20.79,0,0,0,137.54,116.57Z"/><path d="M145.81,114.11a28.92,28.92,0,0,1-3.37,2.25l-.5-.69a22.26,22.26,0,0,0,3.75-2.58,16.42,16.42,0,0,0,2.65-2.8l.79.49a18.6,18.6,0,0,1-2.4,2.56v7.14h-.92Z"/><path d="M150.59,113.5l.76-.34a16,16,0,0,1,1,2.62l-.79.31A14.46,14.46,0,0,0,150.59,113.5Zm1.33,6.5a6.06,6.06,0,0,0,3.21-2.64,10.1,10.1,0,0,0,1.05-4.43l.88.19a11.42,11.42,0,0,1-1.21,4.68,5.66,5.66,0,0,1-1.43,1.68,8.55,8.55,0,0,1-2,1.13Zm.93-7,.76-.31a15.87,15.87,0,0,1,.88,2.57l-.79.33A11.74,11.74,0,0,0,152.85,113Z"/><path d="M163.17,114.37h3.06v.8h-3.06a6.29,6.29,0,0,1-.94,3.65,5.68,5.68,0,0,1-2.37,1.67l-.6-.65a4.73,4.73,0,0,0,2.38-1.82,5.87,5.87,0,0,0,.6-2.85h-3.72v-.8h3.72v-2.16q-1.47.29-2.91.42l-.33-.77a25,25,0,0,0,6-1.22l.44.76c-.73.24-1.5.44-2.31.62Z"/><path d="M105.34,144.8v-8.4h2.39a2.65,2.65,0,0,1,1.73.53,1.75,1.75,0,0,1,.64,1.39,2,2,0,0,1-.39,1.24,2.09,2.09,0,0,1-1.07.75v0A2.1,2.1,0,0,1,110,141a2,2,0,0,1,.51,1.41,2.2,2.2,0,0,1-.77,1.74,2.87,2.87,0,0,1-1.95.67Zm1-7.51V140h1a1.91,1.91,0,0,0,1.27-.39,1.34,1.34,0,0,0,.46-1.1c0-.81-.53-1.22-1.61-1.22Zm0,3.6v3h1.34a2,2,0,0,0,1.34-.41,1.4,1.4,0,0,0,.48-1.13c0-1-.68-1.48-2-1.48Z"/><path d="M120.78,144.8h-1v-5.64c0-.44,0-1,.09-1.63h0a4.19,4.19,0,0,1-.25.81l-2.87,6.46h-.48l-2.87-6.41a5.64,5.64,0,0,1-.25-.86h0c0,.33,0,.88,0,1.65v5.62h-1v-8.4h1.3l2.58,5.86a8.52,8.52,0,0,1,.38,1h0c.17-.47.3-.81.4-1l2.63-5.83h1.23Z"/><path d="M128.71,144.45a4.89,4.89,0,0,1-2.32.49,3.74,3.74,0,0,1-2.87-1.15,4.26,4.26,0,0,1-1.08-3,4.5,4.5,0,0,1,1.21-3.26,4.12,4.12,0,0,1,3.08-1.24,4.92,4.92,0,0,1,2,.34v1.05a4.05,4.05,0,0,0-2-.5,3.07,3.07,0,0,0-2.35,1,3.66,3.66,0,0,0-.9,2.59,3.49,3.49,0,0,0,.84,2.45,2.89,2.89,0,0,0,2.21.91,4.11,4.11,0,0,0,2.19-.57Z"/><path d="M137.91,141.37a10.87,10.87,0,0,1-4.28,3.79l-.53-.69A10.58,10.58,0,0,0,137,141.1a12.26,12.26,0,0,0,1.76-4.33h-5V136H140a16.17,16.17,0,0,1-1.58,4.59,26.78,26.78,0,0,1,2.79,4l-.88.56A21.35,21.35,0,0,0,137.91,141.37Z"/><path d="M146.17,138.91a28.92,28.92,0,0,1-3.37,2.25l-.49-.69a21.78,21.78,0,0,0,3.74-2.58,16.5,16.5,0,0,0,2.66-2.8l.79.49a19.27,19.27,0,0,1-2.4,2.56v7.14h-.93Z"/><path d="M151,138.3l.77-.34a16,16,0,0,1,1,2.62l-.79.31A14.5,14.5,0,0,0,151,138.3Zm1.33,6.5a6.08,6.08,0,0,0,3.22-2.64,10,10,0,0,0,1-4.43l.88.19a11.28,11.28,0,0,1-1.2,4.68,5.66,5.66,0,0,1-1.43,1.68,8.76,8.76,0,0,1-2,1.13Zm.94-7,.76-.31a15.87,15.87,0,0,1,.88,2.57l-.79.33A12.29,12.29,0,0,0,153.22,137.78Z"/><path d="M163.53,139.17h3.06v.8h-3.06a6.3,6.3,0,0,1-.93,3.65,5.68,5.68,0,0,1-2.37,1.67l-.6-.65a4.66,4.66,0,0,0,2.37-1.82,5.86,5.86,0,0,0,.61-2.85h-3.72v-.8h3.72V137c-1,.19-2,.33-2.91.43l-.33-.78a24.85,24.85,0,0,0,6-1.22l.45.76a23.68,23.68,0,0,1-2.32.62Z"/><path d="M125.51,162.43h1.92v.81h-1.92v.9a6.27,6.27,0,0,1-1.26,4.33,6.44,6.44,0,0,1-3.27,1.66l-.49-.69a5.33,5.33,0,0,0,3.22-1.68,5.82,5.82,0,0,0,.89-3.51v-1h-3v3.18h-.9v-3.18h-1.83v-.81h1.83v-2.37h.9v2.37h3V160h.91Z"/><path d="M128.63,164.68h6.53v.89h-6.53Z"/><path d="M136.19,169.37a12.33,12.33,0,0,0,1.67-3.83,27.83,27.83,0,0,0,.74-4.7l1,.09a28.26,28.26,0,0,1-1,5.44,12.49,12.49,0,0,1-1.59,3.45Zm5.12-8.46.91-.08a22.32,22.32,0,0,0,2.5,8.48l-.89.51A25.19,25.19,0,0,1,141.31,160.91Zm1.18-.84.61-.24a15.54,15.54,0,0,1,.89,2l-.65.26A13,13,0,0,0,142.49,160.07Zm1.33-.41.6-.21a9.7,9.7,0,0,1,.85,2l-.62.26A11.87,11.87,0,0,0,143.82,159.66Z"/><path d="M146.07,164.68h6.53v.89h-6.53Z"/><path d="M125.51,187.23h1.92V188h-1.92v.9a6.27,6.27,0,0,1-1.26,4.33,6.44,6.44,0,0,1-3.27,1.66l-.49-.69a5.33,5.33,0,0,0,3.22-1.68,5.78,5.78,0,0,0,.89-3.51v-1h-3v3.18h-.9V188h-1.83v-.81h1.83v-2.37h.9v2.37h3v-2.39h.91Z"/><path d="M128.63,189.48h6.53v.89h-6.53Z"/><path d="M136.19,194.17a12.37,12.37,0,0,0,1.67-3.82,28.13,28.13,0,0,0,.74-4.71l1,.09a28.26,28.26,0,0,1-1,5.44,12.49,12.49,0,0,1-1.59,3.45Zm5.12-8.46.91-.08a22.32,22.32,0,0,0,2.5,8.48l-.89.51A25.19,25.19,0,0,1,141.31,185.71Zm1.18-.84.61-.24a16.2,16.2,0,0,1,.89,2l-.65.26A13,13,0,0,0,142.49,184.87Zm1.33-.41.6-.21a9.7,9.7,0,0,1,.85,2l-.62.26A11.87,11.87,0,0,0,143.82,184.46Z"/><path d="M146.07,189.48h6.53v.89h-6.53Z"/><path d="M125.51,212h1.92v.81h-1.92v.9a6.27,6.27,0,0,1-1.26,4.33,6.44,6.44,0,0,1-3.27,1.66l-.49-.69a5.33,5.33,0,0,0,3.22-1.68,5.78,5.78,0,0,0,.89-3.51v-1h-3V216h-.9v-3.18h-1.83V212h1.83v-2.37h.9V212h3v-2.39h.91Z"/><path d="M128.63,214.28h6.53v.89h-6.53Z"/><path d="M136.19,219a12.37,12.37,0,0,0,1.67-3.82,28.13,28.13,0,0,0,.74-4.71l1,.09a28.26,28.26,0,0,1-1,5.44,12.49,12.49,0,0,1-1.59,3.45Zm5.12-8.46.91-.08a22.32,22.32,0,0,0,2.5,8.48l-.89.51A25.19,25.19,0,0,1,141.31,210.51Zm1.18-.84.61-.24a15.54,15.54,0,0,1,.89,2l-.65.26A13,13,0,0,0,142.49,209.67Zm1.33-.41.6-.21a9.7,9.7,0,0,1,.85,2l-.62.26A11.87,11.87,0,0,0,143.82,209.26Z"/><path d="M146.07,214.28h6.53v.89h-6.53Z"/><path d="M125.51,236.83h1.92v.81h-1.92v.9a6.27,6.27,0,0,1-1.26,4.33,6.44,6.44,0,0,1-3.27,1.66l-.49-.69a5.33,5.33,0,0,0,3.22-1.68,5.78,5.78,0,0,0,.89-3.51v-1h-3v3.18h-.9v-3.18h-1.83v-.81h1.83v-2.37h.9v2.37h3v-2.39h.91Z"/><path d="M128.63,239.08h6.53V240h-6.53Z"/><path d="M136.19,243.77a12.37,12.37,0,0,0,1.67-3.82,28.13,28.13,0,0,0,.74-4.71l1,.09a28.26,28.26,0,0,1-1,5.44,12.49,12.49,0,0,1-1.59,3.45Zm5.12-8.46.91-.08a22.32,22.32,0,0,0,2.5,8.48l-.89.51A25.19,25.19,0,0,1,141.31,235.31Zm1.18-.84.61-.24a15.54,15.54,0,0,1,.89,2l-.65.26A13,13,0,0,0,142.49,234.47Zm1.33-.41.6-.21a9.7,9.7,0,0,1,.85,2l-.62.26A11.87,11.87,0,0,0,143.82,234.06Z"/><path d="M146.07,239.08h6.53V240h-6.53Z"/><path d="M62.67,268.57a12.37,12.37,0,0,0,1.67-3.82,29.21,29.21,0,0,0,.74-4.71l1,.09a29.06,29.06,0,0,1-1,5.44A12.49,12.49,0,0,1,63.47,269Zm5.12-8.46.91-.08a22.32,22.32,0,0,0,2.5,8.48l-.89.51A25.19,25.19,0,0,1,67.79,260.11Z"/><path d="M72.2,263.88h6.53v.89H72.2Z"/><path d="M82.41,263.58v5.7h-.93V259.21h.93v3.48A18.92,18.92,0,0,1,87,264.6l-.46.87A14.83,14.83,0,0,0,82.41,263.58ZM84.73,259l.61-.24a14.27,14.27,0,0,1,.89,2l-.65.26A12.13,12.13,0,0,0,84.73,259Zm1.37-.41.6-.22a9.5,9.5,0,0,1,.85,2l-.62.26A10.8,10.8,0,0,0,86.1,258.55Z"/><path d="M92.76,260.78h3.08c0,2.8-.44,4.84-1.34,6.13a7.08,7.08,0,0,1-3.63,2.44l-.49-.7a6.13,6.13,0,0,0,3.47-2.4,8.93,8.93,0,0,0,1-4.66H89.7v3h-.92v-3.77h3V259h.93Z"/><path d="M99.79,262.67H97.62v-.78H103v.78h-2.26v5.27h2.63v.78H97.25v-.78h2.54Z"/><path d="M104.71,259.87h7.81a8.22,8.22,0,0,1-.73,2.65,5.74,5.74,0,0,1-1.45,1.81l-.7-.58a5.21,5.21,0,0,0,1.26-1.51,4,4,0,0,0,.51-1.56h-6.7Zm.36,8.67a4.7,4.7,0,0,0,2.16-1.81,6.38,6.38,0,0,0,.65-3.17v-1.9h.92v1.92a6.68,6.68,0,0,1-1,3.85,5.87,5.87,0,0,1-2.19,1.79Z"/><path d="M117.21,262.26H124a7.81,7.81,0,0,1-1.68,5.11,7.2,7.2,0,0,1-3.69,1.95l-.43-.69a6.36,6.36,0,0,0,3.63-2.07,5.91,5.91,0,0,0,1.17-3.5h-5.78Zm.73-2.55h5.44v.8h-5.44Z"/><path d="M129.21,262.91a28.92,28.92,0,0,1-3.37,2.25l-.49-.69a21.78,21.78,0,0,0,3.74-2.58,16.5,16.5,0,0,0,2.66-2.8l.79.49a19.91,19.91,0,0,1-2.4,2.56v7.14h-.93Z"/><path d="M134,260.08h6.61q0,4.29-1.54,6.43a8.3,8.3,0,0,1-4,2.79l-.51-.72a7.32,7.32,0,0,0,3.9-2.78,9.08,9.08,0,0,0,1.18-4.92H134Z"/><path d="M148.76,261.63h1.93v.81h-1.93v.9a6.27,6.27,0,0,1-1.26,4.33,6.37,6.37,0,0,1-3.26,1.66l-.49-.69A5.33,5.33,0,0,0,147,267a5.82,5.82,0,0,0,.89-3.51v-1h-3v3.18H144v-3.18h-1.84v-.81H144v-2.37h.9v2.37h3v-2.39h.9Z"/><path d="M155.75,262.91a28.74,28.74,0,0,1-3.36,2.25l-.5-.69a22.26,22.26,0,0,0,3.75-2.58,16.42,16.42,0,0,0,2.65-2.8l.79.49a18.6,18.6,0,0,1-2.4,2.56v7.14h-.93Z"/><path d="M163.44,261.21a11.29,11.29,0,0,1-2.21,3.45l-.68-.53a10.54,10.54,0,0,0,2.59-5l1,.14c-.09.31-.2.69-.35,1.13h4.16a12.73,12.73,0,0,1-2.29,6.3,9,9,0,0,1-3.79,2.66l-.53-.64a8.38,8.38,0,0,0,3.85-2.84,10.75,10.75,0,0,0,1.68-4.68Z"/><path d="M172.14,259.67c0,2.27,0,3.91-.11,4.92a9.42,9.42,0,0,1-.34,2,5.62,5.62,0,0,1-1.76,2.59l-.69-.55a4.46,4.46,0,0,0,1.63-2.38,11.32,11.32,0,0,0,.3-2.47c0-.89.06-2.26.06-4.12Zm2.56,8.13a9,9,0,0,0,3.12-4.12l.61.8a10.93,10.93,0,0,1-4.13,4.71l-.52-.27v-9.34h.92Z"/><path d="M185.06,263.69a14.74,14.74,0,0,1-1.74,4.69l-.8-.44a12.1,12.1,0,0,0,1.67-4.52Zm2.37-2.54h3.8v.8h-3.8v7.34h-.91V262h-3.76v-.8h3.76V259.2h.91Zm1.37,2.62.83-.31a21.63,21.63,0,0,0,1.71,4.39l-.87.47A31,31,0,0,1,188.8,263.77Z"/><path d="M197.12,265.37a10.8,10.8,0,0,1-4.28,3.79l-.53-.69a10.58,10.58,0,0,0,3.92-3.37,12.08,12.08,0,0,0,1.76-4.33h-5V260h6.22a16.17,16.17,0,0,1-1.58,4.59,27.3,27.3,0,0,1,2.8,4l-.89.57A20.79,20.79,0,0,0,197.12,265.37Z"/><path d="M204,263.58v5.7h-.92V259.21H204v3.48a18.75,18.75,0,0,1,4.57,1.91l-.45.87A14.77,14.77,0,0,0,204,263.58Z"/><path d="M103.93,291.77a10.93,10.93,0,0,1-4.28,3.79l-.53-.69A10.66,10.66,0,0,0,103,291.5a12.26,12.26,0,0,0,1.76-4.33h-5v-.8H106A16.17,16.17,0,0,1,104.4,291a26.78,26.78,0,0,1,2.79,4l-.88.56A21.94,21.94,0,0,0,103.93,291.77Z"/><path d="M110.73,287.47h5.63v.8H114a11.31,11.31,0,0,1-1,5.25,5.39,5.39,0,0,1-2.67,2.2l-.66-.59a6.22,6.22,0,0,0,2-1.28,4.51,4.51,0,0,0,1-2.07,16.92,16.92,0,0,0,.33-3.51h-2.6a9.09,9.09,0,0,1-1.55,3l-.77-.41a10.26,10.26,0,0,0,2-5.3l.9.11A15.92,15.92,0,0,1,110.73,287.47Z"/><path d="M117.5,290.28H124v.89H117.5Z"/><path d="M128,286.07q0,3.4-.12,4.92a9.42,9.42,0,0,1-.34,2,5.63,5.63,0,0,1-1.75,2.59L125,295a4.41,4.41,0,0,0,1.63-2.38,11.32,11.32,0,0,0,.3-2.47c0-.89.06-2.26.06-4.12Zm2.55,8.13a9,9,0,0,0,3.12-4.12l.61.8a10.93,10.93,0,0,1-4.13,4.71l-.51-.27V286h.91Z"/><path d="M144.68,294.26H147v.81h-8.59v-.81h5.3l.54-6.81h-4.89v-.8h5.91Z"/><path d="M148.37,293.92h7.47v.83h-7.47Zm.79-6.93h6v.84h-6Z"/><path d="M157.28,288.7l.77-.34a16,16,0,0,1,1,2.62l-.79.31A14.5,14.5,0,0,0,157.28,288.7Zm1.33,6.5a6,6,0,0,0,3.22-2.64,10,10,0,0,0,1-4.43l.88.19a11.28,11.28,0,0,1-1.2,4.68,5.66,5.66,0,0,1-1.43,1.68,8.76,8.76,0,0,1-2,1.13Zm.94-7,.76-.31a15.87,15.87,0,0,1,.88,2.57l-.79.33A12.29,12.29,0,0,0,159.55,288.18Z"/><path d="M167.63,290v5.7h-.92V285.61h.92v3.48A18.92,18.92,0,0,1,172.2,291l-.45.87A15.06,15.06,0,0,0,167.63,290Z"/><path d="M18,115.48V121h1.08v.88H18v2h-.95v-2h-4v-.83c.37-.42.74-.86,1.11-1.33s.74-1,1.08-1.43.66-1,.95-1.45a14.55,14.55,0,0,0,.73-1.39ZM14.18,121h2.87v-4.11c-.29.51-.57,1-.83,1.37s-.51.76-.75,1.09-.46.63-.68.89Z"/><path d="M26.22,120.92H23v-.76h3.2Z"/><path d="M33.9,123.88h-1v-7.26a2,2,0,0,1-.32.26l-.48.28c-.18.1-.37.18-.57.27a4.76,4.76,0,0,1-.57.19v-1a6.12,6.12,0,0,0,.67-.24c.23-.1.47-.21.69-.33l.65-.39a6.62,6.62,0,0,0,.53-.4h.36Z"/><path d="M41.82,121.22a3.19,3.19,0,0,1-.2,1.13,2.78,2.78,0,0,1-.55.89,2.58,2.58,0,0,1-.84.58,2.64,2.64,0,0,1-1.06.21,2.31,2.31,0,0,1-2-1,3.73,3.73,0,0,1-.53-1.21,6.67,6.67,0,0,1-.18-1.61,7.64,7.64,0,0,1,.24-2,4.9,4.9,0,0,1,.69-1.53,3.08,3.08,0,0,1,1.09-1,2.89,2.89,0,0,1,1.41-.35,3.37,3.37,0,0,1,1.39.24v.91a3,3,0,0,0-1.37-.34,2,2,0,0,0-1,.26,2.28,2.28,0,0,0-.78.71,3.33,3.33,0,0,0-.49,1.11,5.39,5.39,0,0,0-.17,1.45h0a2,2,0,0,1,1.92-1.05,2.64,2.64,0,0,1,1,.18,2.26,2.26,0,0,1,.75.53,2.59,2.59,0,0,1,.49.82A3.23,3.23,0,0,1,41.82,121.22Zm-1,.12a2.43,2.43,0,0,0-.11-.79,1.64,1.64,0,0,0-.32-.6,1.48,1.48,0,0,0-.51-.38,1.84,1.84,0,0,0-.69-.13,1.59,1.59,0,0,0-.66.14,1.66,1.66,0,0,0-.53.36,1.73,1.73,0,0,0-.35.54,1.79,1.79,0,0,0-.13.65,2.76,2.76,0,0,0,.13.82,2.06,2.06,0,0,0,.34.66,1.86,1.86,0,0,0,.53.44,1.46,1.46,0,0,0,.69.16,1.59,1.59,0,0,0,.66-.14,1.48,1.48,0,0,0,.51-.38,1.88,1.88,0,0,0,.33-.59A2.58,2.58,0,0,0,40.83,121.34Z"/><path d="M10.92,130.5s0,.06,0,.08,0,.07-.12.13l-.35.23a.31.31,0,0,1-.15.07.15.15,0,0,1-.08,0,9.46,9.46,0,0,0-.75-1c-2.51.32-4.94.54-7.31.66a1.63,1.63,0,0,0-.59.1.4.4,0,0,1-.21.07c-.06,0-.11-.05-.14-.15s-.12-.48-.18-.79l.78,0h.46l.85,0a25.75,25.75,0,0,0,1.55-3.15,3.47,3.47,0,0,0,.21-.81,5.77,5.77,0,0,1,.77.2c.12,0,.18.11.18.17a.26.26,0,0,1-.09.18,1.81,1.81,0,0,0-.32.52A31.76,31.76,0,0,1,4,129.81c1.76-.1,3.42-.24,5-.41a17.92,17.92,0,0,0-1.55-1.46s-.05,0-.05-.07,0-.07.11-.13l.27-.17a.33.33,0,0,1,.13-.08.26.26,0,0,1,.1,0A18.67,18.67,0,0,1,10.92,130.5Zm-1.41,6a.1.1,0,0,1-.11.1H8.82c-.05,0-.08,0-.08-.1V136H3.34v.61c0,.07,0,.1-.1.1H2.68c-.07,0-.1,0-.1-.1l0-2.14v-1l0-1.42c0-.07,0-.1.1-.1l1.65,0H7.76l1.64,0c.07,0,.11,0,.11.1l0,1.26v1.16Zm-.77-1.24v-2.72H3.34v2.72Z"/><path d="M17.22,128A18.7,18.7,0,0,1,16,134.35a1.79,1.79,0,0,1-1.62,1.27,1.49,1.49,0,0,1-1.38-.91,5.21,5.21,0,0,1-.45-2.39,6.31,6.31,0,0,1,.39-2.24,4.33,4.33,0,0,1,.89-1.48,4.15,4.15,0,0,1,1.47-1,4.68,4.68,0,0,1,1.69-.31,3.52,3.52,0,0,1,3,1.28,5.47,5.47,0,0,1,.83,3.26,4.41,4.41,0,0,1-1,2.92A4.81,4.81,0,0,1,17,136.3l-.41-.72a3.63,3.63,0,0,0,3.28-4A4,4,0,0,0,19,128.8,2.41,2.41,0,0,0,17.22,128Zm-.9.09a2.73,2.73,0,0,0-1.11.35,3.72,3.72,0,0,0-.9.79,4.5,4.5,0,0,0-1,3.07,4.05,4.05,0,0,0,.35,1.83c.19.35.41.52.65.52a.69.69,0,0,0,.53-.22,2,2,0,0,0,.38-.65A17,17,0,0,0,16.32,128.13Z"/><path d="M28.48,128.72h1.93v.81H28.48v.89a6.27,6.27,0,0,1-1.26,4.33A6.36,6.36,0,0,1,24,136.41l-.49-.69A5.22,5.22,0,0,0,26.68,134a5.71,5.71,0,0,0,.9-3.51v-1h-3v3.17h-.9v-3.17H21.83v-.81h1.83v-2.38h.9v2.38h3v-2.4h.9Z"/><path d="M31.31,131h6.52v.89H31.31Z"/><path d="M38.56,135.65a12.05,12.05,0,0,0,1.68-3.82,29.31,29.31,0,0,0,.73-4.71l1,.1a29.16,29.16,0,0,1-1,5.43,12.79,12.79,0,0,1-1.6,3.45Zm5.12-8.46.92-.08a22.25,22.25,0,0,0,2.49,8.49l-.88.5A25.19,25.19,0,0,1,43.68,127.19Zm1.18-.83.61-.24a15.26,15.26,0,0,1,.89,2l-.65.27A11.78,11.78,0,0,0,44.86,126.36Zm1.33-.41.6-.22a9.27,9.27,0,0,1,.85,2L47,128A11,11,0,0,0,46.19,126Z"/><path d="M48.15,131h6.52v.89H48.15Z"/></g></svg>