<svg xmlns="http://www.w3.org/2000/svg" xmlns:xlink="http://www.w3.org/1999/xlink" viewBox="0 0 374.67 220"><defs><style>.cls-1,.cls-5{fill:#fff;}.cls-2,.cls-3{fill:#0072c6;}.cls-2{opacity:0.08;}.cls-2,.cls-3,.cls-5{isolation:isolate;}.cls-3{opacity:0.15;}.cls-4{fill:url(#linear-gradient);}.cls-5{opacity:0.8;}.cls-6{fill:url(#linear-gradient-2);}.cls-7{fill:url(#linear-gradient-3);}.cls-8{fill:url(#linear-gradient-4);}.cls-9{fill:url(#linear-gradient-5);}.cls-10{fill:#f2f2f2;}.cls-11{fill:#50e6ff;}.cls-12{fill:url(#linear-gradient-6);}.cls-13{fill:#231f20;}.cls-14{fill:url(#linear-gradient-7);}.cls-15{fill:url(#linear-gradient-8);}.cls-16{fill:url(#linear-gradient-9);}.cls-17{fill:url(#linear-gradient-10);}.cls-18{fill:none;stroke:#3c3c41;stroke-miterlimit:10;}.cls-19{fill:#3c3c41;}.cls-20,.cls-37,.cls-43,.cls-46,.cls-58,.cls-63,.cls-79{font-size:12px;}.cls-20,.cls-46,.cls-58,.cls-63,.cls-79{fill:#1e1e1e;}.cls-20,.cls-79{font-family:YuGothicUI-Bold, Yu Gothic UI;font-weight:700;}.cls-20{letter-spacing:0.05em;}.cls-21{letter-spacing:0.02em;}.cls-22{letter-spacing:0.01em;}.cls-23{letter-spacing:0.02em;}.cls-24,.cls-25,.cls-79{letter-spacing:0.01em;}.cls-25{font-family:SegoeUI-Bold, Segoe UI;}.cls-26,.cls-27,.cls-28,.cls-29,.cls-34,.cls-37,.cls-43,.cls-46,.cls-58,.cls-63,.cls-80{font-family:YuGothicUI-Regular, Yu Gothic UI;}.cls-26,.cls-27,.cls-28,.cls-29,.cls-34{font-weight:400;}.cls-26{letter-spacing:-0.03em;}.cls-27{letter-spacing:-0.06em;}.cls-28,.cls-33{letter-spacing:0.02em;}.cls-29{letter-spacing:-0.02em;}.cls-30{letter-spacing:-0.01em;}.cls-31{letter-spacing:-0.02em;}.cls-32{letter-spacing:-0.05em;}.cls-34{letter-spacing:-0.01em;}.cls-35{letter-spacing:-0.02em;}.cls-36{letter-spacing:-0.07em;}.cls-38{letter-spacing:0.03em;}.cls-39{letter-spacing:-0.01em;}.cls-40{letter-spacing:0em;}.cls-41{letter-spacing:-0.02em;}.cls-42{letter-spacing:-0.03em;}.cls-43{fill:#4f4f4f;}.cls-44{letter-spacing:-0.04em;}.cls-45{letter-spacing:-0.02em;}.cls-46,.cls-73{letter-spacing:0.01em;}.cls-47{letter-spacing:0.01em;}.cls-48{letter-spacing:0em;}.cls-49{letter-spacing:0.02em;}.cls-50{letter-spacing:0.01em;}.cls-51{letter-spacing:0em;}.cls-52{letter-spacing:0.05em;}.cls-53{letter-spacing:-0.04em;}.cls-54{letter-spacing:0em;}.cls-55{letter-spacing:-0.01em;}.cls-56{letter-spacing:-0.04em;}.cls-57{letter-spacing:-0.02em;}.cls-58,.cls-68{letter-spacing:0.05em;}.cls-59{letter-spacing:0.02em;}.cls-60{letter-spacing:0.01em;}.cls-61{letter-spacing:-0.02em;}.cls-62{letter-spacing:-0.01em;}.cls-63{letter-spacing:-0.01em;}.cls-64{letter-spacing:0em;}.cls-65{letter-spacing:-0.01em;}.cls-66{letter-spacing:0em;}.cls-67{letter-spacing:-0.01em;}.cls-69{letter-spacing:-0.01em;}.cls-70{letter-spacing:0.03em;}.cls-71{letter-spacing:0em;}.cls-72{letter-spacing:0.01em;}.cls-74{letter-spacing:-0.07em;}.cls-75{letter-spacing:-0.02em;}.cls-76{letter-spacing:0.02em;}.cls-77{letter-spacing:0.01em;}.cls-78{letter-spacing:-0.03em;}.cls-80{font-size:12.04px;letter-spacing:0.01em;}</style><linearGradient id="linear-gradient" x1="81.99" y1="984.27" x2="81.99" y2="1006.88" gradientTransform="translate(0 -833)" gradientUnits="userSpaceOnUse"><stop offset="0.22" stop-color="#32d4f5"/><stop offset="0.47" stop-color="#31d1f3"/><stop offset="0.63" stop-color="#2ec9eb"/><stop offset="0.77" stop-color="#29bade"/><stop offset="0.89" stop-color="#22a5cb"/><stop offset="1" stop-color="#198ab3"/></linearGradient><linearGradient id="linear-gradient-2" x1="81.33" y1="972.13" x2="82.98" y2="992.67" xlink:href="#linear-gradient"/><linearGradient id="linear-gradient-3" x1="81.99" y1="904.47" x2="81.99" y2="927.08" gradientTransform="translate(0 -833)" gradientUnits="userSpaceOnUse"><stop offset="0.1" stop-color="#54aef0"/><stop offset="1" stop-color="#1988d9"/></linearGradient><linearGradient id="linear-gradient-4" x1="81.33" y1="892.33" x2="82.98" y2="912.87" xlink:href="#linear-gradient-3"/><linearGradient id="linear-gradient-5" x1="200.55" y1="992.8" x2="200.55" y2="1022.65" gradientTransform="translate(0 -833)" gradientUnits="userSpaceOnUse"><stop offset="0" stop-color="#5ea0ef"/><stop offset="0.18" stop-color="#559cec"/><stop offset="0.47" stop-color="#3c91e5"/><stop offset="0.84" stop-color="#1380da"/><stop offset="1" stop-color="#0078d4"/></linearGradient><linearGradient id="linear-gradient-6" x1="195.55" y1="1022.96" x2="195.55" y2="1008.5" gradientTransform="translate(0 -833)" gradientUnits="userSpaceOnUse"><stop offset="0" stop-color="#198ab3"/><stop offset="0.14" stop-color="#22a5cb"/><stop offset="0.3" stop-color="#29bade"/><stop offset="0.47" stop-color="#2ec9eb"/><stop offset="0.68" stop-color="#31d1f3"/><stop offset="1" stop-color="#32d4f5"/></linearGradient><linearGradient id="linear-gradient-7" x1="321.6" y1="1004.76" x2="321.6" y2="982.8" gradientTransform="translate(0 -833)" gradientUnits="userSpaceOnUse"><stop offset="0" stop-color="#773adc"/><stop offset="0.25" stop-color="#9255e6"/><stop offset="0.5" stop-color="#a669ee"/><stop offset="0.76" stop-color="#b376f2"/><stop offset="1" stop-color="#b77af4"/></linearGradient><linearGradient id="linear-gradient-8" x1="321.62" y1="989.2" x2="321.62" y2="969.21" xlink:href="#linear-gradient-7"/><linearGradient id="linear-gradient-9" x1="321.6" y1="923.79" x2="321.6" y2="902.04" gradientTransform="translate(0 -833)" gradientUnits="userSpaceOnUse"><stop offset="0" stop-color="#5e9624"/><stop offset="0.26" stop-color="#70a828"/><stop offset="0.79" stop-color="#9fd732"/><stop offset="1" stop-color="#b4ec36"/></linearGradient><linearGradient id="linear-gradient-10" x1="321.67" y1="908.37" x2="321.67" y2="888.55" xlink:href="#linear-gradient-9"/></defs><title>OJ105365104</title><g id="backgroud"><g id="Shapes"><rect class="cls-1" width="374.67" height="220"/><rect class="cls-2" x="29.48" y="55" width="345.19" height="70"/><rect class="cls-2" x="29.48" y="134.8" width="345.19" height="85.2"/><rect class="cls-3" x="29.48" width="105" height="220"/><rect class="cls-3" x="269.1" width="105.57" height="220"/><path class="cls-4" d="M93.18,169.8a2.42,2.42,0,0,0,2.42-2.42h0a.66.66,0,0,0,0-.28c-1-7.62-5.28-13.82-13.62-13.82s-12.76,5.25-13.61,13.84a2.43,2.43,0,0,0,2.15,2.68Z"/><path class="cls-5" d="M82,155.08a7.66,7.66,0,0,1-4.13-1.21L82,164.57l4.07-10.64A7.6,7.6,0,0,1,82,155.08Z"/><circle class="cls-6" cx="82" cy="147.43" r="7.63"/><path class="cls-7" d="M93.18,90a2.42,2.42,0,0,0,2.42-2.42h0a.66.66,0,0,0,0-.28c-1-7.62-5.28-13.82-13.62-13.82S69.22,78.73,68.37,87.32A2.43,2.43,0,0,0,70.52,90Z"/><path class="cls-5" d="M82,75.28a7.66,7.66,0,0,1-4.13-1.21L82,84.77l4.07-10.64A7.51,7.51,0,0,1,82,75.28Z"/><circle class="cls-8" cx="82" cy="67.63" r="7.63"/><g id="b1186d34-5ca3-4e43-992d-40ecef5e891b"><path class="cls-9" d="M208.31,159.8H192.79a1,1,0,0,0-1,1v22.1a18.94,18.94,0,0,1,2.51-1.77h2.94l1.63,2.16v3.28l-2.05,1.49-2.86-.35-2.17-2.06v3a1,1,0,0,0,1,1h15.52a1,1,0,0,0,1-1V160.79A1,1,0,0,0,208.31,159.8Z"/><path id="af47f827-8b1b-4acd-8974-8eafe35490c9" class="cls-10" d="M194.1,162.9H197a.25.25,0,0,1,.25.25h0v3.68a.25.25,0,0,1-.25.25h-2.9a.25.25,0,0,1-.25-.25h0v-3.68A.25.25,0,0,1,194.1,162.9Zm5,0H202a.25.25,0,0,1,.25.25h0v3.68a.25.25,0,0,1-.25.25h-2.85a.25.25,0,0,1-.25-.25h0v-3.68a.25.25,0,0,1,.25-.25Zm5,0H207a.26.26,0,0,1,.24.25h0v3.68a.26.26,0,0,1-.24.25h-2.86a.25.25,0,0,1-.25-.25h0v-3.68a.25.25,0,0,1,.25-.25Zm-10,6.66H197a.25.25,0,0,1,.25.25h0v3.72a.25.25,0,0,1-.25.25h-2.9a.25.25,0,0,1-.25-.25h0v-3.68a.25.25,0,0,1,.2-.29h0Zm5,0H202a.25.25,0,0,1,.25.25h0v3.72a.25.25,0,0,1-.25.25h-2.85a.25.25,0,0,1-.25-.25h0v-3.68a.26.26,0,0,1,.21-.29Zm5,0H207a.26.26,0,0,1,.24.25h0v3.72a.26.26,0,0,1-.24.25h-2.86a.25.25,0,0,1-.25-.25h0v-3.68a.27.27,0,0,1,.21-.29Zm-10,6.74H197a.26.26,0,0,1,.25.24h0v3.65a.25.25,0,0,1-.25.25h-2.9a.25.25,0,0,1-.25-.25v-3.65A.26.26,0,0,1,194.1,176.3Zm5,0H202a.26.26,0,0,1,.25.24h0v3.65a.25.25,0,0,1-.25.25h-2.85a.25.25,0,0,1-.25-.25h0v-3.65a.25.25,0,0,1,.21-.24Zm0,6.69H202a.25.25,0,0,1,.25.25h0v5.46a.25.25,0,0,1-.25.25h-2.85a.25.25,0,0,1-.25-.25v-5.46a.25.25,0,0,1,.25-.25Zm5-6.69H207a.24.24,0,0,1,.24.24h0v3.65a.26.26,0,0,1-.24.25h-2.86a.25.25,0,0,1-.25-.25h0v-3.65a.26.26,0,0,1,.25-.24Z"/><path class="cls-11" d="M195.58,182a2.28,2.28,0,0,0-2.19,1.77h-8a5,5,0,0,0-.14,1.15V185h8.12a2.28,2.28,0,1,0,2.19-3Z"/><path class="cls-12" d="M201.79,181a5.79,5.79,0,0,0-6-5.51,5.93,5.93,0,0,0-5.67,3.86,5.63,5.63,0,0,0-4.5,3.54H193a3,3,0,1,1-.06,2.61h-7.5a5.67,5.67,0,0,0,5.6,4.3h10.1a4.65,4.65,0,0,0,4.6-4.29A4.61,4.61,0,0,0,201.79,181Z"/><path class="cls-11" d="M195.58,182a2.28,2.28,0,0,0-2.19,1.77h-8a3.85,3.85,0,0,1-.83-.11,4,4,0,0,1,.44-7.94h.39l.13-.35a4.51,4.51,0,0,1,4.36-3,4.67,4.67,0,0,1,4,2.25,5.38,5.38,0,0,1,1.33-.16,5.89,5.89,0,0,0-5.32-3.35,5.8,5.8,0,0,0-5.48,3.46,5.21,5.21,0,0,0-.4,10.2h0a3.53,3.53,0,0,0,1.29.21h8a2.29,2.29,0,0,0,4.39-1.32,2.3,2.3,0,0,0-2.2-1.63Z"/></g><polygon class="cls-13" points="191.55 98.25 214.67 98.25 202.17 76.63 198.42 87.13 205.67 95.75 191.55 98.25"/><polygon class="cls-13" points="201.17 75 192.3 82.5 184.67 95.63 191.55 95.63 191.55 95.75 201.17 75"/><path class="cls-14" d="M332.45,169.8a2.36,2.36,0,0,0,2.37-2.34h0v-.28c-.93-7.39-5.14-13.41-13.19-13.41s-12.35,5.09-13.23,13.42a2.37,2.37,0,0,0,2.1,2.61Z"/><path class="cls-1" d="M321.62,155.52a7.47,7.47,0,0,1-4-1.17l4,10.33,3.86-10.28A7.21,7.21,0,0,1,321.62,155.52Z"/><circle class="cls-15" cx="321.62" cy="148.12" r="7.42"/><path class="cls-16" d="M332.34,88.85a2.29,2.29,0,0,0,2.33-2.25h0a1.31,1.31,0,0,0,0-.28C333.75,78.94,329.59,73,321.61,73s-12.21,5-13.07,13.31a2.35,2.35,0,0,0,2.1,2.57Z"/><path class="cls-1" d="M321.75,74.7a7.35,7.35,0,0,1-4-1.16l3.84,10.28,3.92-10.21A7.44,7.44,0,0,1,321.75,74.7Z"/><circle class="cls-17" cx="321.67" cy="67.36" r="7.36"/><line class="cls-18" x1="104.67" y1="85" x2="174.29" y2="85"/><polygon class="cls-19" points="173.2 88.74 179.67 85 173.2 81.26 173.2 88.74"/><line class="cls-18" x1="225.06" y1="85" x2="299.67" y2="85"/><polygon class="cls-19" points="226.15 88.74 219.67 85 226.15 81.26 226.15 88.74"/><line class="cls-18" x1="104.67" y1="167.07" x2="174.29" y2="167.07"/><polygon class="cls-19" points="173.2 170.81 179.67 167.06 173.2 163.33 173.2 170.81"/><line class="cls-18" x1="225.06" y1="167.07" x2="299.67" y2="167.07"/><polygon class="cls-19" points="226.15 170.81 219.67 167.06 226.15 163.33 226.15 170.81"/></g></g><g id="txt"><text class="cls-20" transform="translate(293.01 16.65) scale(0.96 1)">A<tspan class="cls-21" x="8.61" y="0">z</tspan><tspan class="cls-22" x="14.37" y="0">u</tspan><tspan class="cls-23" x="21.49" y="0">r</tspan><tspan class="cls-24" x="26.17" y="0">e</tspan><tspan class="cls-25" x="32.73" y="0"> </tspan><tspan class="cls-26" x="36.22" y="0">ソ</tspan><tspan class="cls-27" x="44.45" y="0">リ</tspan><tspan class="cls-28" x="52.1" y="0">ュ</tspan><tspan class="cls-29"><tspan x="3.09" y="13">ー</tspan><tspan class="cls-30" x="10.56" y="13">シ</tspan><tspan class="cls-31" x="20" y="13">ョ</tspan><tspan class="cls-24" x="27.14" y="13">ン </tspan><tspan class="cls-32" x="39.74" y="13">ア</tspan><tspan class="cls-33" x="48.44" y="13">ー</tspan></tspan><tspan class="cls-34"><tspan x="12.6" y="26">キ</tspan><tspan class="cls-35" x="21.43" y="26">テ</tspan><tspan class="cls-36" x="30.15" y="26">ク</tspan><tspan class="cls-24" x="38.37" y="26">ト</tspan></tspan></text><text class="cls-37" transform="translate(47.28 45)"><tspan class="cls-38">A</tspan><tspan x="8.12" y="0">z</tspan><tspan class="cls-39" x="13.55" y="0">u</tspan><tspan class="cls-40" x="20.22" y="0">r</tspan><tspan x="24.4" y="0">e </tspan><tspan class="cls-41" x="33.96" y="0">管</tspan><tspan class="cls-42" x="45.75" y="0">理</tspan><tspan x="57.44" y="0">者</tspan></text><text class="cls-43" transform="translate(107.99 79.98)"><tspan class="cls-44">用</tspan><tspan x="11.49" y="0">途</tspan></text><text class="cls-43" transform="translate(269.93 79.98)"><tspan class="cls-45">操</tspan><tspan x="11.76" y="0">作</tspan></text><text class="cls-43" transform="translate(107.99 162.03)"><tspan class="cls-44">用</tspan><tspan x="11.49" y="0">途</tspan></text><text class="cls-43" transform="translate(269.93 162.03)"><tspan class="cls-45">操</tspan><tspan x="11.76" y="0">作</tspan></text><text class="cls-46" transform="translate(296.45 105.31) scale(0.96 1)">M<tspan class="cls-47" x="10.86" y="0">i</tspan><tspan class="cls-48" x="13.87" y="0">c</tspan><tspan class="cls-49" x="19.44" y="0">r</tspan><tspan class="cls-50" x="23.83" y="0">o</tspan><tspan class="cls-24" x="30.99" y="0">s</tspan><tspan class="cls-51" x="36.26" y="0">o</tspan><tspan class="cls-52" x="43.35" y="0">f</tspan><tspan class="cls-24" x="47.71" y="0">t </tspan><tspan class="cls-53"><tspan x="-1.35" y="13">の</tspan><tspan class="cls-54" x="7.99" y="13">エ</tspan><tspan class="cls-55" x="17.02" y="13">ン</tspan><tspan class="cls-56" x="25.82" y="13">ジ</tspan><tspan class="cls-57" x="35.13" y="13">ニ</tspan><tspan class="cls-33" x="43.82" y="13">ア</tspan></tspan></text><text class="cls-58" transform="translate(67.12 105.31) scale(0.96 1)">A<tspan class="cls-59" x="8.32" y="0">z</tspan><tspan class="cls-60" x="13.95" y="0">u</tspan><tspan class="cls-49" x="20.82" y="0">r</tspan><tspan class="cls-24" x="25.21" y="0">e </tspan><tspan class="cls-61"><tspan x="-0.98" y="13">の</tspan><tspan class="cls-62" x="8.62" y="13">顧</tspan><tspan class="cls-33" x="20.47" y="13">客</tspan></tspan></text><text class="cls-63" transform="translate(63.13 185.16) scale(0.96 1)">あ<tspan class="cls-64" x="9.72" y="0">な</tspan><tspan class="cls-65" x="20" y="0">た</tspan><tspan class="cls-24" x="29.3" y="0">の</tspan><tspan class="cls-62"><tspan x="7.44" y="13">顧</tspan><tspan class="cls-33" x="19.28" y="13">客</tspan></tspan></text><text class="cls-63" transform="translate(281.06 185.09) scale(0.96 1)">あ<tspan class="cls-64" x="9.72" y="0">な</tspan><tspan class="cls-65" x="20" y="0">た</tspan><tspan class="cls-53" x="29.3" y="0">の</tspan><tspan class="cls-66" x="38.64" y="0">エ</tspan><tspan class="cls-67" x="47.67" y="0">ン</tspan><tspan class="cls-56" x="56.46" y="0">ジ</tspan><tspan class="cls-57" x="65.78" y="0">ニ</tspan><tspan class="cls-24" x="74.47" y="0">ア </tspan><tspan class="cls-68"><tspan x="-3.02" y="13">A</tspan><tspan class="cls-59" x="5.3" y="13">z</tspan><tspan class="cls-60" x="10.93" y="13">u</tspan><tspan class="cls-49" x="17.8" y="13">r</tspan><tspan class="cls-24" x="22.19" y="13">e </tspan><tspan class="cls-69" x="32.11" y="13">S</tspan><tspan class="cls-70" x="38.38" y="13">t</tspan><tspan class="cls-24" x="42.75" y="13">a</tspan><tspan class="cls-71" x="49.03" y="13">c</tspan><tspan class="cls-24" x="54.61" y="13">k </tspan><tspan class="cls-72" x="64.23" y="13">H</tspan><tspan class="cls-73" x="72.88" y="13">u</tspan><tspan class="cls-24" x="79.75" y="13">b </tspan></tspan><tspan class="cls-74"><tspan x="16.39" y="26">オ</tspan><tspan class="cls-75" x="24.72" y="26">ペ</tspan><tspan class="cls-76" x="34.34" y="26">レ</tspan><tspan class="cls-77" x="43.16" y="26">ー</tspan><tspan class="cls-78" x="51.05" y="26">タ</tspan><tspan class="cls-33" x="59.67" y="26">ー</tspan></tspan></text><text class="cls-79" transform="translate(61.02 15) scale(0.96 1)">DevOps</text><text class="cls-80" transform="translate(13.47 30.24) scale(0.96 1)">(Node.js / .NET / ...開発者)</text><path class="cls-13" d="M161.42,148.84h-2.06l-.6-1.87h-3l-.59,1.87h-2l3.06-8.4h2.24Zm-3.09-3.32-.91-2.83a4,4,0,0,1-.14-.75h0a3.06,3.06,0,0,1-.15.73l-.91,2.85Z"/><path class="cls-13" d="M167,148.84h-5.39v-.77l3-3.87H162v-1.36h5v.91l-2.86,3.72H167Z"/><path class="cls-13" d="M173.74,148.84h-1.85v-.92h0A2.09,2.09,0,0,1,170,149c-1.39,0-2.09-.84-2.09-2.52v-3.62h1.85v3.45c0,.85.33,1.28,1,1.28a1,1,0,0,0,.8-.35,1.42,1.42,0,0,0,.3-1v-3.43h1.85Z"/><path class="cls-13" d="M179.21,144.51a1.63,1.63,0,0,0-.78-.18,1.11,1.11,0,0,0-.94.44,1.84,1.84,0,0,0-.34,1.2v2.87h-1.86v-6h1.86V144h0a1.6,1.6,0,0,1,1.58-1.22,1.43,1.43,0,0,1,.46.07Z"/><path class="cls-13" d="M185.41,146.37H181.5c.06.87.61,1.3,1.65,1.3a3.14,3.14,0,0,0,1.74-.47v1.34a4.65,4.65,0,0,1-2.17.44,2.79,2.79,0,0,1-3.05-2.49,4.34,4.34,0,0,1,0-.51,3.29,3.29,0,0,1,.86-2.37,2.91,2.91,0,0,1,2.14-.87,2.63,2.63,0,0,1,2,.78,3,3,0,0,1,.71,2.12Zm-1.71-1.14c0-.86-.33-1.29-1-1.29a1,1,0,0,0-.77.37,1.73,1.73,0,0,0-.39.92Z"/><path class="cls-13" d="M189.62,148.52v-1.88a3.42,3.42,0,0,0,1.11.64,3.59,3.59,0,0,0,1.21.22,2.56,2.56,0,0,0,.62-.07,1.14,1.14,0,0,0,.44-.18.7.7,0,0,0,.27-.27.63.63,0,0,0,.09-.33.77.77,0,0,0-.14-.44,1.48,1.48,0,0,0-.39-.36,4,4,0,0,0-.57-.32l-.72-.31a3.54,3.54,0,0,1-1.47-1,2.23,2.23,0,0,1-.48-1.43,2.34,2.34,0,0,1,.26-1.13,2.13,2.13,0,0,1,.72-.77,2.88,2.88,0,0,1,1.05-.45,5.36,5.36,0,0,1,1.26-.15,7.67,7.67,0,0,1,1.17.08,4.91,4.91,0,0,1,.93.25v1.75a3,3,0,0,0-.46-.26,5.17,5.17,0,0,0-.51-.18,3,3,0,0,0-.52-.11H193a2.88,2.88,0,0,0-.59.06,1.85,1.85,0,0,0-.44.18.77.77,0,0,0-.28.26.62.62,0,0,0-.1.35.73.73,0,0,0,.11.38,1.22,1.22,0,0,0,.32.32,3.5,3.5,0,0,0,.49.29c.2.1.42.19.67.3a9.37,9.37,0,0,1,.9.44,3.29,3.29,0,0,1,.69.54,2.15,2.15,0,0,1,.44.68,2.5,2.5,0,0,1,.15.9,2.41,2.41,0,0,1-.27,1.18,2.05,2.05,0,0,1-.72.77,3.08,3.08,0,0,1-1.06.43,6.28,6.28,0,0,1-1.3.1,7.35,7.35,0,0,1-1.32-.11A4.45,4.45,0,0,1,189.62,148.52Z"/><path class="cls-13" d="M199.88,148.77a2.92,2.92,0,0,1-1.24.21,1.75,1.75,0,0,1-1.95-2V144.2h-1v-1.36h1v-1.3l1.84-.52v1.82h1.35v1.36h-1.35v2.43c0,.62.25.94.75.94a1.39,1.39,0,0,0,.6-.17Z"/><path class="cls-13" d="M205.92,148.84h-1.76V148h0a2,2,0,0,1-1.79,1,1.87,1.87,0,0,1-1.37-.49,1.79,1.79,0,0,1-.5-1.32c0-1.17.69-1.84,2.07-2l1.63-.21c0-.66-.36-1-1.07-1a3.57,3.57,0,0,0-2,.64V143.2a4.91,4.91,0,0,1,1.06-.36,6.26,6.26,0,0,1,1.22-.15,2.27,2.27,0,0,1,2.57,1.93,2.22,2.22,0,0,1,0,.63Zm-1.74-2.44V146l-1.09.14c-.61.07-.91.35-.91.81a.73.73,0,0,0,.22.52.87.87,0,0,0,.6.2,1.11,1.11,0,0,0,.85-.36A1.33,1.33,0,0,0,204.18,146.4Z"/><path class="cls-13" d="M211.93,148.62a3.65,3.65,0,0,1-1.81.36,3,3,0,0,1-2.24-.83A2.89,2.89,0,0,1,207,146a3.18,3.18,0,0,1,.92-2.41,3.45,3.45,0,0,1,2.45-.88,3.25,3.25,0,0,1,1.54.28v1.57a2.16,2.16,0,0,0-1.3-.43,1.65,1.65,0,0,0-1.26.47,2,2,0,0,0,0,2.53,1.59,1.59,0,0,0,1.22.46,2.45,2.45,0,0,0,1.36-.44Z"/><path class="cls-13" d="M219.15,148.84h-2.22l-1.91-3h0v3h-1.85V140H215v5.65h0l1.78-2.77H219l-2.15,2.82Z"/><path class="cls-13" d="M230.61,148.84h-1.9v-3.42h-3.48v3.42h-1.89v-8.4h1.89v3.35h3.48v-3.35h1.9Z"/><path class="cls-13" d="M238.05,148.84h-1.84v-.92h0a2.09,2.09,0,0,1-1.83,1.06c-1.39,0-2.09-.84-2.09-2.52v-3.62h1.85v3.45c0,.85.33,1.28,1,1.28a1,1,0,0,0,.8-.35,1.42,1.42,0,0,0,.3-.95v-3.43h1.84Z"/><path class="cls-13" d="M241.49,148.14h0v.7h-1.85V140h1.85v3.78h0a2.18,2.18,0,0,1,1.95-1.05,2.14,2.14,0,0,1,1.79.8,3.52,3.52,0,0,1,.62,2.18,3.72,3.72,0,0,1-.73,2.41,2.41,2.41,0,0,1-2,.9A1.88,1.88,0,0,1,241.49,148.14Zm-.05-2.53v.61a1.46,1.46,0,0,0,.33,1,1.1,1.1,0,0,0,.86.38,1.16,1.16,0,0,0,1-.49,2.35,2.35,0,0,0,.35-1.39,1.91,1.91,0,0,0-.32-1.16,1.09,1.09,0,0,0-.92-.42,1.18,1.18,0,0,0-.92.42A1.56,1.56,0,0,0,241.44,145.61Z"/><path class="cls-13" d="M191.69,70h-2.06l-.6-1.87h-3L185.45,70h-2l3.06-8.4h2.24Zm-3.09-3.32-.91-2.83a4,4,0,0,1-.14-.75h0a3.06,3.06,0,0,1-.15.73l-.91,2.85Z"/><path class="cls-13" d="M197.31,70h-5.39v-.77l3-3.86H192.2V64h5.07v.91l-2.86,3.72h2.88Z"/><path class="cls-13" d="M204,70h-1.85v-.91h0a2.1,2.1,0,0,1-1.83,1.06c-1.39,0-2.09-.85-2.09-2.53V64h1.85v3.46c0,.84.33,1.27,1,1.27a1,1,0,0,0,.8-.35,1.42,1.42,0,0,0,.3-.95V64H204Z"/><path class="cls-13" d="M209.48,65.67a1.63,1.63,0,0,0-.78-.18,1.11,1.11,0,0,0-.94.44,2,2,0,0,0-.34,1.2V70h-1.86V64h1.86v1.11h0A1.6,1.6,0,0,1,209,63.89a1.43,1.43,0,0,1,.46.07Z"/><path class="cls-13" d="M215.68,67.53h-3.91c.06.87.61,1.3,1.65,1.3a3.22,3.22,0,0,0,1.74-.46V69.7a4.53,4.53,0,0,1-2.17.45,2.79,2.79,0,0,1-3.05-2.5,2.62,2.62,0,0,1,0-.56,3.18,3.18,0,0,1,.86-2.36,2.87,2.87,0,0,1,2.14-.88,2.63,2.63,0,0,1,2,.78,3,3,0,0,1,.71,2.12ZM214,66.39q0-1.29-1.05-1.29a1,1,0,0,0-.77.37,1.65,1.65,0,0,0-.39.92Z"/></g></svg>