<svg xmlns="http://www.w3.org/2000/svg" xmlns:xlink="http://www.w3.org/1999/xlink" viewBox="0 0 395 201.5"><defs><style>.cls-1{fill:#fff;}.cls-2,.cls-8{fill:#3c3c41;}.cls-2,.cls-6{opacity:0.08;}.cls-2,.cls-3,.cls-4,.cls-5,.cls-6,.cls-7,.cls-8,.cls-9{isolation:isolate;}.cls-3,.cls-4,.cls-5{opacity:0.7;}.cls-3{fill:url(#Degradado_sin_nombre);}.cls-4{fill:url(#Degradado_sin_nombre_2);}.cls-5{fill:url(#Degradado_sin_nombre_3);}.cls-6{fill:#0078d4;}.cls-7,.cls-9{fill:none;stroke-miterlimit:10;stroke-width:0.5px;}.cls-7{stroke:#0078d4;opacity:0.6;}.cls-8{opacity:0.15;}.cls-9{stroke:#3c3c41;opacity:0.5;}.cls-10{fill:url(#Degradado_sin_nombre_4);}.cls-11{fill:#f2f2f2;}.cls-12{fill:#1e1e1e;}</style><linearGradient id="Degradado_sin_nombre" x1="62.5" y1="201.89" x2="62.5" y2="26.89" gradientTransform="matrix(1, 0, 0, -1, 0, 201.89)" gradientUnits="userSpaceOnUse"><stop offset="0" stop-color="#5ea0ef"/><stop offset="0.18" stop-color="#559cec"/><stop offset="0.47" stop-color="#3c91e5"/><stop offset="0.84" stop-color="#1380da"/><stop offset="1" stop-color="#0078d4"/></linearGradient><linearGradient id="Degradado_sin_nombre_2" x1="197.5" y1="201.89" x2="197.5" y2="26.89" xlink:href="#Degradado_sin_nombre"/><linearGradient id="Degradado_sin_nombre_3" x1="332.5" y1="201.89" x2="332.5" y2="26.89" xlink:href="#Degradado_sin_nombre"/><linearGradient id="Degradado_sin_nombre_4" x1="146.77" y1="486.39" x2="146.77" y2="509.39" gradientTransform="translate(0 -307.89)" xlink:href="#Degradado_sin_nombre"/></defs><title>OJ105266023</title><g id="bg"><g id="Shapes"><rect class="cls-1" x="135" width="260" height="195"/><rect class="cls-2" x="135" width="260" height="195"/><rect class="cls-1" width="125" height="175"/><rect class="cls-3" width="125" height="175"/><rect class="cls-1" x="135" width="125" height="175"/><rect class="cls-4" x="135" width="125" height="175"/><rect class="cls-1" x="270" width="125" height="175"/><rect class="cls-5" x="270" width="125" height="175"/><rect class="cls-1" x="5" y="40" width="250" height="40"/><rect class="cls-6" x="5" y="40" width="250" height="40"/><rect class="cls-7" x="5" y="40" width="250" height="40"/><rect class="cls-1" x="140" y="85" width="250" height="40"/><rect class="cls-8" x="140" y="85" width="250" height="40"/><rect class="cls-9" x="140" y="85" width="250" height="40"/><rect class="cls-1" x="5" y="85" width="115" height="50"/><rect class="cls-6" x="5" y="85" width="115" height="50"/><rect class="cls-7" x="5" y="85" width="115" height="50"/><rect class="cls-1" x="5" y="140" width="115" height="25"/><rect class="cls-6" x="5" y="140" width="115" height="25"/><rect class="cls-7" x="5" y="140" width="115" height="25"/><rect class="cls-1" x="140" y="140" width="250" height="25"/><rect class="cls-8" x="140" y="140" width="250" height="25"/><rect class="cls-9" x="140" y="140" width="250" height="25"/><path class="cls-10" d="M153.53,179.27v21.46a.75.75,0,0,1-.74.77h-12a.75.75,0,0,1-.77-.74V179.27a.75.75,0,0,1,.74-.77h12a.75.75,0,0,1,.77.74Z"/><path id="a1bc77ea-5288-41a0-8f9a-2d282cf54a86" class="cls-11" d="M141.8,180.89h2.26a.21.21,0,0,1,.19.19v2.85a.19.19,0,0,1-.19.18H141.8a.18.18,0,0,1-.2-.16v-2.87A.2.2,0,0,1,141.8,180.89Zm3.87,0h2.19a.2.2,0,0,1,.19.19h0v2.85a.18.18,0,0,1-.18.18h-2.2a.18.18,0,0,1-.19-.17h0v-2.85a.2.2,0,0,1,.19-.19Zm3.87,0h2.19a.2.2,0,0,1,.2.19v2.85a.18.18,0,0,1-.18.18h-2.21a.18.18,0,0,1-.19-.17h0v-2.85a.2.2,0,0,1,.19-.19Zm-7.74,5.16h2.26a.2.2,0,0,1,.19.19h0v2.84a.19.19,0,0,1-.18.2H141.8a.2.2,0,0,1-.2-.2v-2.84a.19.19,0,0,1,.19-.19Zm3.87,0h2.19a.18.18,0,0,1,.19.17v0h0v2.84a.19.19,0,0,1-.18.2h-2.2a.19.19,0,0,1-.19-.19h0v-2.84a.18.18,0,0,1,.17-.19Zm3.87,0h2.19a.19.19,0,0,1,.2.18h0v2.84a.2.2,0,0,1-.2.2h-2.19a.19.19,0,0,1-.19-.19h0v-2.84a.18.18,0,0,1,.17-.19Zm-7.74,5.17h2.26a.2.2,0,0,1,.19.19h0v2.84a.21.21,0,0,1-.19.19H141.8a.2.2,0,0,1-.2-.19v-2.9a.2.2,0,0,1,.2-.13Zm3.87,0h2.19a.19.19,0,0,1,.25.1h0v2.84a.2.2,0,0,1-.19.19h-2.26a.18.18,0,0,1-.19-.17v0h0v-2.84a.18.18,0,0,1,.2-.1Zm0,5.15h2.19a.2.2,0,0,1,.19.19h0v4.26a.18.18,0,0,1-.17.19h-2.21a.18.18,0,0,1-.19-.17v-4.28a.2.2,0,0,1,.19-.19Zm3.87-5.15h2.19a.19.19,0,0,1,.2.18h0v2.84a.2.2,0,0,1-.2.19h-2.19a.2.2,0,0,1-.19-.19h0v-2.9a.18.18,0,0,1,.19-.13Z"/></g><path class="cls-12" d="M54.28,17H52.22l-.6-1.87h-3L48,17H46l3.06-8.4H51.3Zm-3.09-3.32-.9-2.83a2.76,2.76,0,0,1-.14-.75h0a3.06,3.06,0,0,1-.15.73l-1,2.85Z"/><path class="cls-12" d="M60.21,17H54.83v-.77l3-3.86h-2.7V11h5.06v.91l-2.86,3.72h2.88Z"/><path class="cls-12" d="M67,17H65.13v-.91h0a2.1,2.1,0,0,1-1.83,1.06c-1.39,0-2.09-.85-2.09-2.53V11H63v3.46c0,.84.33,1.27,1,1.27a1,1,0,0,0,.8-.35,1.43,1.43,0,0,0,.3-1V11H67Z"/><path class="cls-12" d="M72.42,12.67a1.75,1.75,0,0,0-.78-.18,1.14,1.14,0,0,0-1,.44,2,2,0,0,0-.34,1.2V17H68.5V11h1.85v1.11h0A1.6,1.6,0,0,1,72,10.89a1.43,1.43,0,0,1,.46.07Z"/><path class="cls-12" d="M78.74,14.53H74.83c.06.87.61,1.3,1.65,1.3a3.22,3.22,0,0,0,1.74-.46V16.7a4.53,4.53,0,0,1-2.17.45,3,3,0,0,1-2.25-.81,3,3,0,0,1-.8-2.25,3.18,3.18,0,0,1,.86-2.36A2.87,2.87,0,0,1,76,10.85a2.63,2.63,0,0,1,2,.78,3,3,0,0,1,.71,2.12ZM77,13.39c0-.86-.33-1.29-1-1.29a1,1,0,0,0-.77.37,1.65,1.65,0,0,0-.39.92Z"/></g><g id="txt"><path class="cls-12" d="M293.61,16.07h-2.1l-.61-1.93h-3l-.6,1.93h-2.08l3.11-8.65h2.28Zm-3.15-3.42-.92-2.91A4.41,4.41,0,0,1,289.4,9h0a3.3,3.3,0,0,1-.15.76l-.93,2.93Z"/><path class="cls-12" d="M299.32,16.07h-5.48v-.79l3.07-4h-2.76V9.89h5.15v.94l-2.91,3.83h2.93Z"/><path class="cls-12" d="M306.13,16.07h-1.88v-.94h0a2.1,2.1,0,0,1-1.86,1.09c-1.42,0-2.12-.87-2.12-2.6V9.89h1.87v3.56c0,.87.35,1.31,1,1.31a1,1,0,0,0,.81-.36,1.46,1.46,0,0,0,.3-1V9.89h1.88Z"/><path class="cls-12" d="M311.69,11.61a1.65,1.65,0,0,0-.79-.18,1.14,1.14,0,0,0-1,.45,2,2,0,0,0-.34,1.24v3h-1.89V9.89h1.89V11h0a1.62,1.62,0,0,1,1.61-1.25,1.14,1.14,0,0,1,.46.07Z"/><path class="cls-12" d="M318,13.52h-4c.07.9.62,1.35,1.68,1.35a3.26,3.26,0,0,0,1.77-.48v1.37a4.58,4.58,0,0,1-2.2.46,3.1,3.1,0,0,1-2.3-.83,3.16,3.16,0,0,1-.81-2.31,3.32,3.32,0,0,1,.88-2.44,2.92,2.92,0,0,1,2.17-.9,2.64,2.64,0,0,1,2.06.8,3.12,3.12,0,0,1,.73,2.18Zm-1.74-1.17c0-.88-.36-1.32-1.06-1.32a1,1,0,0,0-.79.38,1.75,1.75,0,0,0-.4.94Z"/><path class="cls-12" d="M322.28,15.74V13.81a3.8,3.8,0,0,0,1.13.66,3.7,3.7,0,0,0,1.22.22,2.41,2.41,0,0,0,.64-.07,1.32,1.32,0,0,0,.45-.18.8.8,0,0,0,.27-.28.7.7,0,0,0,.09-.35.77.77,0,0,0-.14-.45,2,2,0,0,0-.39-.37,4,4,0,0,0-.59-.32l-.73-.32a3.7,3.7,0,0,1-1.49-1,2.28,2.28,0,0,1-.5-1.47,2.38,2.38,0,0,1,.27-1.17,2.21,2.21,0,0,1,.73-.79,3.35,3.35,0,0,1,1.07-.47,6,6,0,0,1,1.29-.14,7,7,0,0,1,1.18.08,4.56,4.56,0,0,1,1,.25v1.8a2.37,2.37,0,0,0-.47-.26,3.24,3.24,0,0,0-.52-.19,5,5,0,0,0-.53-.12l-.5,0a2.77,2.77,0,0,0-.6.06,1.32,1.32,0,0,0-.45.18,1,1,0,0,0-.29.27.65.65,0,0,0-.1.36.71.71,0,0,0,.11.39,1.65,1.65,0,0,0,.32.33,3.83,3.83,0,0,0,.51.3c.2.1.42.2.67.3a7.88,7.88,0,0,1,.92.46,3.07,3.07,0,0,1,.7.56,2,2,0,0,1,.45.7,2.56,2.56,0,0,1,.16.92,2.36,2.36,0,0,1-.28,1.21,2.16,2.16,0,0,1-.73.8,3.27,3.27,0,0,1-1.08.44,6.1,6.1,0,0,1-1.3.13,7.18,7.18,0,0,1-1.34-.12A4.06,4.06,0,0,1,322.28,15.74Z"/><path class="cls-12" d="M332.71,16a2.88,2.88,0,0,1-1.25.22c-1.33,0-2-.7-2-2.09V11.3h-1V9.89h1V8.56L331.34,8V9.89h1.37V11.3h-1.37v2.5c0,.64.25,1,.76,1a1.31,1.31,0,0,0,.61-.17Z"/><path class="cls-12" d="M338.85,16.07h-1.78v-.89h0a2,2,0,0,1-1.81,1,1.88,1.88,0,0,1-1.4-.51,1.83,1.83,0,0,1-.51-1.36q0-1.8,2.1-2.07l1.66-.23c0-.67-.36-1-1.09-1a3.68,3.68,0,0,0-2.07.66V10.26A4.23,4.23,0,0,1,335,9.9a5.27,5.27,0,0,1,1.24-.16,2.32,2.32,0,0,1,2.61,2.64Zm-1.77-2.51v-.42l-1.11.15c-.61.08-.92.36-.92.84a.7.7,0,0,0,.23.53.83.83,0,0,0,.6.21,1.16,1.16,0,0,0,.87-.37A1.37,1.37,0,0,0,337.08,13.56Z"/><path class="cls-12" d="M345,15.85a3.78,3.78,0,0,1-1.84.37,3.12,3.12,0,0,1-2.28-.86,3,3,0,0,1-.87-2.23,3.28,3.28,0,0,1,.94-2.48,3.43,3.43,0,0,1,2.49-.91A3.19,3.19,0,0,1,345,10v1.62a2.11,2.11,0,0,0-1.32-.45,1.72,1.72,0,0,0-1.28.48,1.79,1.79,0,0,0-.47,1.33,1.77,1.77,0,0,0,.45,1.28,1.66,1.66,0,0,0,1.24.47,2.46,2.46,0,0,0,1.38-.45Z"/><path class="cls-12" d="M352.31,16.07h-2.26L348.1,13h0v3.06h-1.89V6.93h1.89v5.82h0l1.82-2.86h2.23L350,12.79Z"/><path class="cls-12" d="M364,16.07H362V12.55h-3.54v3.52h-1.92V7.42h1.92v3.45H362V7.42H364Z"/><path class="cls-12" d="M371.52,16.07h-1.87v-.94h0a2.13,2.13,0,0,1-1.87,1.09c-1.41,0-2.12-.87-2.12-2.6V9.89h1.88v3.56c0,.87.34,1.31,1,1.31a1,1,0,0,0,.81-.36,1.41,1.41,0,0,0,.31-1V9.89h1.87Z"/><path class="cls-12" d="M375,15.35h0v.72h-1.88V6.93H375v3.89h0a2.39,2.39,0,0,1,3.8-.26,3.62,3.62,0,0,1,.63,2.25,3.81,3.81,0,0,1-.74,2.47,2.41,2.41,0,0,1-2,.94A1.9,1.9,0,0,1,375,15.35Zm-.06-2.6v.63a1.49,1.49,0,0,0,.34,1,1.11,1.11,0,0,0,.87.39,1.17,1.17,0,0,0,1-.5,2.44,2.44,0,0,0,.35-1.43,1.94,1.94,0,0,0-.32-1.2,1.12,1.12,0,0,0-.93-.43,1.19,1.19,0,0,0-.94.43A1.7,1.7,0,0,0,375,12.75Z"/><path class="cls-12" d="M330.46,30.37h-1.93V26.85H325v3.52h-1.93V21.72H325v3.45h3.54V21.72h1.93Z"/><path class="cls-12" d="M338.54,30.06a5.55,5.55,0,0,1-2.45.46A4.08,4.08,0,0,1,333,29.35a4.32,4.32,0,0,1-1.13-3.12,4.61,4.61,0,0,1,1.27-3.36,4.4,4.4,0,0,1,3.29-1.29,6,6,0,0,1,2.11.32v1.87a3.8,3.8,0,0,0-2-.52,2.58,2.58,0,0,0-1.94.77,2.87,2.87,0,0,0-.74,2.07,2.77,2.77,0,0,0,.7,2,2.43,2.43,0,0,0,1.87.75,4,4,0,0,0,2.07-.56Z"/><path class="cls-12" d="M342,30.37H340V21.72H342Z"/><path class="cls-12" d="M159,17.23h-2.1l-.61-1.92h-3l-.6,1.92h-2.08l3.11-8.65H156Zm-3.15-3.42L155,10.9a4.46,4.46,0,0,1-.14-.77h-.05a3.32,3.32,0,0,1-.15.75l-.92,2.93Z"/><path class="cls-12" d="M164.73,17.23h-5.48v-.79l3.07-4h-2.76V11.05h5.15V12l-2.91,3.82h2.93Z"/><path class="cls-12" d="M171.54,17.23h-1.88v-.94h0a2.1,2.1,0,0,1-1.86,1.09c-1.42,0-2.12-.87-2.12-2.6V11.05h1.87v3.56c0,.88.35,1.31,1,1.31a1,1,0,0,0,.81-.36,1.46,1.46,0,0,0,.3-1V11.05h1.88Z"/><path class="cls-12" d="M177.1,12.77a1.65,1.65,0,0,0-.79-.18,1.14,1.14,0,0,0-1,.45,2,2,0,0,0-.34,1.24v3h-1.89V11.05H175V12.2h0A1.62,1.62,0,0,1,176.64,11a1.14,1.14,0,0,1,.46.07Z"/><path class="cls-12" d="M183.41,14.68h-4c.07.9.62,1.35,1.68,1.35a3.26,3.26,0,0,0,1.77-.48v1.37a4.58,4.58,0,0,1-2.2.46,3.1,3.1,0,0,1-2.3-.83,3.16,3.16,0,0,1-.81-2.31,3.32,3.32,0,0,1,.88-2.44,2.92,2.92,0,0,1,2.17-.9,2.62,2.62,0,0,1,2.06.81,3.08,3.08,0,0,1,.73,2.17Zm-1.74-1.16c0-.89-.36-1.33-1.06-1.33a1,1,0,0,0-.79.38,1.75,1.75,0,0,0-.4.95Z"/><path class="cls-12" d="M187.69,16.9V15a3.8,3.8,0,0,0,1.13.66,3.46,3.46,0,0,0,1.22.22,2.41,2.41,0,0,0,.64-.07,1.32,1.32,0,0,0,.45-.18.8.8,0,0,0,.27-.28.7.7,0,0,0,.09-.35.8.8,0,0,0-.14-.45,2,2,0,0,0-.39-.37,4,4,0,0,0-.59-.32l-.73-.32a3.7,3.7,0,0,1-1.49-1,2.28,2.28,0,0,1-.5-1.47,2.34,2.34,0,0,1,.27-1.16,2.24,2.24,0,0,1,.73-.8,3.35,3.35,0,0,1,1.07-.47A6,6,0,0,1,191,8.44a7,7,0,0,1,1.18.08,4.56,4.56,0,0,1,.95.25v1.8a2.37,2.37,0,0,0-.47-.26,3.24,3.24,0,0,0-.52-.19,3.33,3.33,0,0,0-.53-.11,3,3,0,0,0-.5,0,2.77,2.77,0,0,0-.6.06,1.32,1.32,0,0,0-.45.18,1,1,0,0,0-.29.27.65.65,0,0,0-.1.36.71.71,0,0,0,.11.39,1.42,1.42,0,0,0,.32.33,3.83,3.83,0,0,0,.51.3c.2.1.42.2.67.3a6.56,6.56,0,0,1,.92.47,3.05,3.05,0,0,1,.71.55,2.13,2.13,0,0,1,.44.7,2.56,2.56,0,0,1,.16.92,2.46,2.46,0,0,1-.27,1.21,2.28,2.28,0,0,1-.74.8,3.27,3.27,0,0,1-1.08.44,6.1,6.1,0,0,1-1.3.13,7.18,7.18,0,0,1-1.34-.12A4.06,4.06,0,0,1,187.69,16.9Z"/><path class="cls-12" d="M198.12,17.16a2.76,2.76,0,0,1-1.26.22c-1.32,0-2-.7-2-2.09V12.46h-1V11.05h1V9.72l1.87-.54v1.87h1.37v1.41h-1.37V15c0,.64.25,1,.76,1a1.31,1.31,0,0,0,.61-.17Z"/><path class="cls-12" d="M204.26,17.23h-1.78v-.89h0a2,2,0,0,1-1.81,1,1.88,1.88,0,0,1-1.4-.51,1.83,1.83,0,0,1-.51-1.36q0-1.8,2.1-2.07l1.66-.23c0-.67-.36-1-1.09-1a3.68,3.68,0,0,0-2.07.66V11.42a4.66,4.66,0,0,1,1.08-.36,5.86,5.86,0,0,1,1.24-.16,2.32,2.32,0,0,1,2.61,2.64Zm-1.77-2.51v-.41l-1.11.14c-.61.08-.92.36-.92.84a.69.69,0,0,0,.23.53.83.83,0,0,0,.6.21,1.13,1.13,0,0,0,.87-.37A1.37,1.37,0,0,0,202.49,14.72Z"/><path class="cls-12" d="M210.37,17a3.67,3.67,0,0,1-1.84.37,3.12,3.12,0,0,1-2.28-.86,3,3,0,0,1-.87-2.23,3.32,3.32,0,0,1,.94-2.48,3.43,3.43,0,0,1,2.49-.91,3.19,3.19,0,0,1,1.56.29v1.62a2.11,2.11,0,0,0-1.32-.45,1.72,1.72,0,0,0-1.28.48,1.79,1.79,0,0,0-.47,1.33,1.77,1.77,0,0,0,.45,1.28,1.62,1.62,0,0,0,1.24.47,2.46,2.46,0,0,0,1.38-.45Z"/><path class="cls-12" d="M217.72,17.23h-2.26l-2-3.06h0v3.06H211.6V8.09h1.89v5.82h0l1.82-2.86h2.23L215.38,14Z"/><path class="cls-12" d="M229.37,17.23h-1.93V13.71H223.9v3.52H222V8.58h1.92V12h3.54V8.58h1.93Z"/><path class="cls-12" d="M236.93,17.23h-1.87v-.94h0a2.13,2.13,0,0,1-1.87,1.09c-1.41,0-2.12-.87-2.12-2.6V11.05h1.88v3.56c0,.88.34,1.31,1,1.31a1,1,0,0,0,.81-.36,1.41,1.41,0,0,0,.31-1V11.05h1.87Z"/><path class="cls-12" d="M240.43,16.51h0v.72h-1.88V8.09h1.88V12h0a2.39,2.39,0,0,1,3.8-.26,3.62,3.62,0,0,1,.63,2.25,3.86,3.86,0,0,1-.74,2.48,2.42,2.42,0,0,1-2,.93A1.9,1.9,0,0,1,240.43,16.51Zm-.06-2.6v.63a1.49,1.49,0,0,0,.34,1,1.11,1.11,0,0,0,.87.39,1.17,1.17,0,0,0,1-.5,2.44,2.44,0,0,0,.35-1.43,1.94,1.94,0,0,0-.32-1.2,1.12,1.12,0,0,0-.93-.43,1.19,1.19,0,0,0-.93.43A1.65,1.65,0,0,0,240.37,13.91Z"/><path class="cls-12" d="M59.44,56.12H58.36l-.88-2.36H54l-.83,2.36H52.05l3.18-8.4h1Zm-2.28-3.24-1.3-3.58a3.65,3.65,0,0,1-.13-.56h0a2.67,2.67,0,0,1-.14.56l-1.29,3.58Z"/><path class="cls-12" d="M64.54,50.39,61,55.3h3.47v.82H59.64v-.3l3.51-4.88H60v-.82h4.57Z"/><path class="cls-12" d="M70.44,56.12H69.5v-.95h0a1.93,1.93,0,0,1-1.83,1.09c-1.41,0-2.12-.85-2.12-2.56V50.12h1v3.43c0,1.27.48,1.9,1.43,1.9a1.44,1.44,0,0,0,1.15-.52,2,2,0,0,0,.45-1.35V50.12h.94Z"/><path class="cls-12" d="M75.33,51.09a1.11,1.11,0,0,0-.71-.19,1.2,1.2,0,0,0-1,.58,2.7,2.7,0,0,0-.41,1.58v3.06h-1v-6h1v1.23h0a2.15,2.15,0,0,1,.62-1,1.4,1.4,0,0,1,.94-.36,1.62,1.62,0,0,1,.56.08Z"/><path class="cls-12" d="M81,53.36H76.82a2.3,2.3,0,0,0,.54,1.55,1.82,1.82,0,0,0,1.4.54,2.88,2.88,0,0,0,1.84-.67v.9a3.37,3.37,0,0,1-2.07.58,2.47,2.47,0,0,1-2-.82,3.35,3.35,0,0,1-.72-2.3,3.32,3.32,0,0,1,.78-2.28A2.52,2.52,0,0,1,78.57,50a2.2,2.2,0,0,1,1.8.76A3.17,3.17,0,0,1,81,52.85Zm-1-.82a2,2,0,0,0-.4-1.29,1.34,1.34,0,0,0-1.09-.46,1.56,1.56,0,0,0-1.14.48,2.23,2.23,0,0,0-.57,1.27Z"/><path class="cls-12" d="M86.43,55.25h0v3.63h-1V50.12h1v1.05h0a2.24,2.24,0,0,1,2-1.19,2.15,2.15,0,0,1,1.78.8,3.37,3.37,0,0,1,.65,2.16,3.69,3.69,0,0,1-.73,2.41,2.38,2.38,0,0,1-2,.91A2,2,0,0,1,86.43,55.25Zm0-2.42v.84a1.79,1.79,0,0,0,.48,1.26,1.56,1.56,0,0,0,1.21.52,1.59,1.59,0,0,0,1.36-.67,3.12,3.12,0,0,0,.48-1.86,2.48,2.48,0,0,0-.45-1.57,1.54,1.54,0,0,0-1.24-.56,1.66,1.66,0,0,0-1.33.58A2.13,2.13,0,0,0,86.4,52.83Z"/><path class="cls-12" d="M94.78,56.26a2.76,2.76,0,0,1-2.1-.84,3.16,3.16,0,0,1-.78-2.23,3.23,3.23,0,0,1,.82-2.36,2.89,2.89,0,0,1,2.2-.85A2.62,2.62,0,0,1,97,50.8a3.29,3.29,0,0,1,.74,2.29,3.21,3.21,0,0,1-.8,2.3A2.77,2.77,0,0,1,94.78,56.26Zm.07-5.47a1.81,1.81,0,0,0-1.45.63,2.61,2.61,0,0,0-.53,1.73,2.46,2.46,0,0,0,.54,1.68,1.82,1.82,0,0,0,1.44.62,1.73,1.73,0,0,0,1.42-.6,3.28,3.28,0,0,0,0-3.45A1.71,1.71,0,0,0,94.85,50.79Z"/><path class="cls-12" d="M102.22,51.09a1.11,1.11,0,0,0-.71-.19,1.2,1.2,0,0,0-1,.58,2.7,2.7,0,0,0-.41,1.58v3.06h-1v-6h1v1.23h0a2.15,2.15,0,0,1,.62-1,1.4,1.4,0,0,1,.94-.36,1.62,1.62,0,0,1,.56.08Z"/><path class="cls-12" d="M105.88,56.06a1.82,1.82,0,0,1-.88.19c-1,0-1.56-.59-1.56-1.76V50.94h-1v-.82h1V48.65l1-.31v1.78h1.49v.82h-1.49v3.38a1.45,1.45,0,0,0,.2.86.82.82,0,0,0,.67.26,1,1,0,0,0,.62-.2Z"/><path class="cls-12" d="M111.28,56.12h-1v-.94h0a2,2,0,0,1-1.82,1.08,1.94,1.94,0,0,1-1.39-.48,1.65,1.65,0,0,1-.5-1.26c0-1.12.66-1.77,2-2l1.78-.25c0-1-.41-1.53-1.22-1.53a2.91,2.91,0,0,0-1.94.73v-1a3.61,3.61,0,0,1,2-.56c1.39,0,2.09.74,2.09,2.24Zm-1-3-1.43.2a2.3,2.3,0,0,0-1,.33,1,1,0,0,0-.33.84.9.9,0,0,0,.31.72,1.15,1.15,0,0,0,.82.28,1.54,1.54,0,0,0,1.17-.5,1.83,1.83,0,0,0,.46-1.27Z"/><path class="cls-12" d="M113.9,56.12h-1V47.24h1Z"/><path class="cls-12" d="M116.07,54a12,12,0,0,1,1.39,1.31,8.39,8.39,0,0,1,1,1.27l-.78.59a9.78,9.78,0,0,0-2.29-2.61Z"/><path class="cls-12" d="M130,56.12h-1.07l-.88-2.36h-3.52l-.83,2.36h-1.08l3.18-8.4h1Zm-2.27-3.24-1.3-3.58a2.75,2.75,0,0,1-.13-.56h0a3.49,3.49,0,0,1-.14.56l-1.29,3.58Z"/><path class="cls-12" d="M132.08,52.94v3.18h-1v-8.4h2.28a3,3,0,0,1,2.06.65,2.36,2.36,0,0,1,.73,1.85,2.57,2.57,0,0,1-.81,2,3.07,3.07,0,0,1-2.2.76Zm0-4.33v3.44h1a2.28,2.28,0,0,0,1.54-.46,1.67,1.67,0,0,0,.53-1.32c0-1.11-.65-1.66-1.95-1.66Z"/><path class="cls-12" d="M138.6,56.12h-1v-8.4h1Z"/><path class="cls-12" d="M140.91,54a12,12,0,0,1,1.39,1.31,8.39,8.39,0,0,1,1,1.27l-.79.59a9.57,9.57,0,0,0-2.28-2.61Z"/><path class="cls-12" d="M149.39,56.12h-1v-8.4h1Z"/><path class="cls-12" d="M155.57,56.12h-.95v-.94h0a2,2,0,0,1-1.83,1.08,1.9,1.9,0,0,1-1.38-.48,1.61,1.61,0,0,1-.5-1.26q0-1.68,2-2l1.78-.25c0-1-.41-1.53-1.22-1.53a2.89,2.89,0,0,0-1.93.73v-1a3.58,3.58,0,0,1,2-.56c1.39,0,2.09.74,2.09,2.24Zm-.95-3-1.43.2a2.3,2.3,0,0,0-1,.33,1,1,0,0,0-.33.84.9.9,0,0,0,.31.72,1.17,1.17,0,0,0,.82.28,1.54,1.54,0,0,0,1.17-.5,1.79,1.79,0,0,0,.46-1.27Z"/><path class="cls-12" d="M161.48,56.12h-.95v-.94h0a2,2,0,0,1-1.82,1.08,1.92,1.92,0,0,1-1.39-.48,1.65,1.65,0,0,1-.5-1.26c0-1.12.65-1.77,2-2l1.77-.25c0-1-.4-1.53-1.22-1.53a2.89,2.89,0,0,0-1.93.73v-1a3.58,3.58,0,0,1,2-.56c1.4,0,2.09.74,2.09,2.24Zm-.95-3-1.43.2a2.2,2.2,0,0,0-1,.33,1,1,0,0,0-.34.84.93.93,0,0,0,.31.72,1.18,1.18,0,0,0,.83.28,1.51,1.51,0,0,0,1.16-.5,1.79,1.79,0,0,0,.46-1.27Z"/><path class="cls-12" d="M162.89,55.78V54.62a2,2,0,0,0,.47.31,3.23,3.23,0,0,0,.58.24,3.39,3.39,0,0,0,.61.15,3,3,0,0,0,.57,0,2.24,2.24,0,0,0,1.34-.33,1.17,1.17,0,0,0,.44-1,1.1,1.1,0,0,0-.15-.59,1.45,1.45,0,0,0-.4-.46,3.68,3.68,0,0,0-.62-.4l-.77-.4c-.29-.15-.56-.3-.81-.46a3.38,3.38,0,0,1-.65-.5,2.06,2.06,0,0,1-.44-.62,2.1,2.1,0,0,1-.16-.82,2,2,0,0,1,.25-1,2.21,2.21,0,0,1,.66-.7,3,3,0,0,1,.92-.41,4.16,4.16,0,0,1,1.06-.13,4,4,0,0,1,1.78.29V49a3.21,3.21,0,0,0-1.88-.51,3.39,3.39,0,0,0-.64.06,2,2,0,0,0-.57.22,1.27,1.27,0,0,0-.4.4,1,1,0,0,0-.16.58,1.22,1.22,0,0,0,.12.56,1.54,1.54,0,0,0,.35.43,3.52,3.52,0,0,0,.57.37l.76.4c.3.15.58.3.85.47a3.82,3.82,0,0,1,.7.54,2.28,2.28,0,0,1,.47.66,1.89,1.89,0,0,1,.18.84,2.14,2.14,0,0,1-.24,1,1.9,1.9,0,0,1-.65.7,2.74,2.74,0,0,1-.94.39,5.06,5.06,0,0,1-1.12.12l-.49,0-.59-.1a4.74,4.74,0,0,1-.57-.15A1.93,1.93,0,0,1,162.89,55.78Z"/><path class="cls-12" d="M169.7,54a11.24,11.24,0,0,1,1.39,1.31,8.39,8.39,0,0,1,1,1.27l-.78.59A9.44,9.44,0,0,0,169,54.52Z"/><path class="cls-12" d="M178.18,52.94v3.18h-1v-8.4h2.28a3,3,0,0,1,2.07.65,2.39,2.39,0,0,1,.73,1.85,2.57,2.57,0,0,1-.81,2,3.1,3.1,0,0,1-2.2.76Zm0-4.33v3.44h1a2.25,2.25,0,0,0,1.54-.46,1.67,1.67,0,0,0,.53-1.32c0-1.11-.65-1.66-1.94-1.66Z"/><path class="cls-12" d="M187.85,56.12h-.95v-.94h0a2,2,0,0,1-1.83,1.08,1.9,1.9,0,0,1-1.38-.48,1.61,1.61,0,0,1-.5-1.26q0-1.68,2-2l1.78-.25c0-1-.41-1.53-1.22-1.53a2.91,2.91,0,0,0-1.94.73v-1a3.63,3.63,0,0,1,2-.56c1.39,0,2.09.74,2.09,2.24Zm-.95-3-1.43.2a2.3,2.3,0,0,0-1,.33,1,1,0,0,0-.33.84.9.9,0,0,0,.31.72,1.15,1.15,0,0,0,.82.28,1.54,1.54,0,0,0,1.17-.5,1.79,1.79,0,0,0,.46-1.27Z"/><path class="cls-12" d="M193.76,56.12h-.95v-.94h0A2,2,0,0,1,191,56.26a1.9,1.9,0,0,1-1.38-.48,1.65,1.65,0,0,1-.5-1.26q0-1.68,1.95-2l1.78-.25c0-1-.41-1.53-1.22-1.53a2.89,2.89,0,0,0-1.93.73v-1a3.58,3.58,0,0,1,2-.56c1.39,0,2.09.74,2.09,2.24Zm-.95-3-1.43.2a2.2,2.2,0,0,0-1,.33,1,1,0,0,0-.34.84.9.9,0,0,0,.31.72,1.18,1.18,0,0,0,.83.28,1.52,1.52,0,0,0,1.16-.5,1.79,1.79,0,0,0,.46-1.27Z"/><path class="cls-12" d="M195.17,55.78V54.62a2,2,0,0,0,.47.31,3.23,3.23,0,0,0,.58.24,3.39,3.39,0,0,0,.61.15,2.93,2.93,0,0,0,.57,0,2.24,2.24,0,0,0,1.34-.33,1.17,1.17,0,0,0,.44-1,1.1,1.1,0,0,0-.15-.59,1.45,1.45,0,0,0-.4-.46,3.68,3.68,0,0,0-.62-.4l-.77-.4c-.29-.15-.56-.3-.81-.46a3.38,3.38,0,0,1-.65-.5,2.06,2.06,0,0,1-.44-.62,1.94,1.94,0,0,1-.16-.82,1.9,1.9,0,0,1,.25-1,2.18,2.18,0,0,1,.65-.7,3,3,0,0,1,.93-.41,4.14,4.14,0,0,1,1.05-.13,4,4,0,0,1,1.79.29V49a3.23,3.23,0,0,0-1.88-.51,3.39,3.39,0,0,0-.64.06,2,2,0,0,0-.57.22,1.27,1.27,0,0,0-.4.4,1,1,0,0,0-.16.58,1.22,1.22,0,0,0,.12.56,1.38,1.38,0,0,0,.35.43,3.88,3.88,0,0,0,.56.37l.77.4c.3.15.58.3.85.47a3.82,3.82,0,0,1,.7.54,2.28,2.28,0,0,1,.47.66,1.89,1.89,0,0,1,.18.84,2.14,2.14,0,0,1-.24,1,2,2,0,0,1-.65.7,2.74,2.74,0,0,1-.94.39,5.06,5.06,0,0,1-1.12.12l-.49,0-.59-.1a4.74,4.74,0,0,1-.57-.15A1.93,1.93,0,0,1,195.17,55.78Z"/><path class="cls-12" d="M202,54a11.24,11.24,0,0,1,1.39,1.31,8.39,8.39,0,0,1,1,1.27l-.78.59a9.61,9.61,0,0,0-2.29-2.61Z"/><path class="cls-12" d="M57.92,63a11.36,11.36,0,0,1-2.19,3.46L55.06,66a10.62,10.62,0,0,0,2.55-5l.94.14c-.08.31-.19.69-.34,1.13h4.11a12.83,12.83,0,0,1-2.26,6.3,8.94,8.94,0,0,1-3.75,2.66l-.52-.64a8.29,8.29,0,0,0,3.8-2.84A10.84,10.84,0,0,0,61.25,63Z"/><path class="cls-12" d="M63.84,64.08h6.7a7.88,7.88,0,0,1-1.66,5.11,7,7,0,0,1-3.64,1.94l-.43-.68a6.28,6.28,0,0,0,3.59-2.07,6,6,0,0,0,1.15-3.5H63.84Zm.72-2.56h5.38v.81H64.56Z"/><path class="cls-12" d="M76.1,62.6h3q0,4.2-1.32,6.13a7,7,0,0,1-3.59,2.44l-.48-.7a6,6,0,0,0,3.42-2.41,8.88,8.88,0,0,0,1-4.65H73.08v3h-.92V62.6h3V60.85h.92Z"/><path class="cls-12" d="M82.91,65.4v5.7H82V61h.92v3.48a18.17,18.17,0,0,1,4.51,1.91l-.45.86A14.76,14.76,0,0,0,82.91,65.4Zm2.3-4.62.6-.24a15.84,15.84,0,0,1,.88,2l-.65.26A13.21,13.21,0,0,0,85.21,60.78Zm1.34-.41.6-.22a10.11,10.11,0,0,1,.84,2l-.61.25A11,11,0,0,0,86.55,60.37Z"/><path class="cls-12" d="M98.45,62.7a11.45,11.45,0,0,1-1.15,5.08A7.57,7.57,0,0,1,93,71.12l-.5-.72a7.22,7.22,0,0,0,3.85-2.78,9.09,9.09,0,0,0,1.16-4.92H92v-.81h5.68a1.13,1.13,0,0,1-.08-.47,1.32,1.32,0,0,1,2.3-.9,1.36,1.36,0,0,1-.09,1.91,1.27,1.27,0,0,1-.89.34A1.2,1.2,0,0,1,98.45,62.7Zm.42-2.1a.8.8,0,0,0-.81.82.82.82,0,0,0,.26.63A.82.82,0,0,0,99.48,62a.84.84,0,0,0,.21-.57.82.82,0,0,0-.82-.82Z"/><path class="cls-12" d="M100.88,64.08h6.69a7.88,7.88,0,0,1-1.65,5.11,7,7,0,0,1-3.64,1.94l-.43-.68a6.31,6.31,0,0,0,3.59-2.07,6,6,0,0,0,1.15-3.5h-5.71Zm.72-2.56H107v.81H101.6Z"/><path class="cls-12" d="M108.93,64.11l.75-.33a16.26,16.26,0,0,1,1,2.61l-.78.31A15.88,15.88,0,0,0,108.93,64.11Zm1.31,6.51A6.06,6.06,0,0,0,113.42,68a10.3,10.3,0,0,0,1-4.43l.87.19a11.61,11.61,0,0,1-1.19,4.68,5.63,5.63,0,0,1-1.42,1.68,8.89,8.89,0,0,1-2,1.13Zm.93-7,.74-.31a14.88,14.88,0,0,1,.87,2.56l-.77.34A12.92,12.92,0,0,0,111.17,63.6Z"/><path class="cls-12" d="M119,65.4v5.7h-.91V61H119v3.48a18,18,0,0,1,4.51,1.91l-.45.86A14.76,14.76,0,0,0,119,65.4Z"/><path class="cls-12" d="M124.76,61.89h6.53c0,2.87-.53,5-1.53,6.44a8.14,8.14,0,0,1-4,2.79l-.5-.72a7.24,7.24,0,0,0,3.86-2.78,9.18,9.18,0,0,0,1.16-4.92h-5.54Z"/><path class="cls-12" d="M136.07,65.27h-3.14v-.76h3.68l-.07-1.73h.88l.06,1.73h1.83v.76h-1.79l.21,5.69h-.89l-.12-3.68.09-1.72-.37.9a10.49,10.49,0,0,1-3.34,3.72l-.57-.65A9.91,9.91,0,0,0,136.07,65.27Z"/><path class="cls-12" d="M140.6,65.7h6.45v.89H140.6Z"/><path class="cls-12" d="M154.67,69a26.52,26.52,0,0,0-1.47-3.16l.76-.34a36.53,36.53,0,0,1,2.32,5.15l-.86.41c-.15-.47-.3-.91-.46-1.32q-3.56.56-6.7.92l-.19-.87.71-.07q1.42-4.19,2.49-8.38l.92.24q-1,3.84-2.48,8C151.44,69.45,153.09,69.24,154.67,69Z"/><path class="cls-12" d="M162.5,62.16c0,.06,0,.09-.1.09l-1.27,0h-.42a7.05,7.05,0,0,1,.45,1s0,0,0,0,0,.07-.12.09l-.36.12-.12,0s-.06,0-.08-.09a6,6,0,0,0-.47-1.16h-1.08a7,7,0,0,1-1,1.15c-.09.07-.14.11-.17.11a.4.4,0,0,1-.17-.11,1.33,1.33,0,0,0-.38-.24,6,6,0,0,0,1.59-2.06,1.28,1.28,0,0,0,.15-.49,5.42,5.42,0,0,1,.65.14q.12,0,.12.12a.21.21,0,0,1-.07.15.91.91,0,0,0-.19.3l-.1.19a1,1,0,0,0-.09.16h1.83l1.27,0c.07,0,.1,0,.1.09Zm4.83,3.76a.09.09,0,0,1-.1.1h-.54c-.06,0-.09,0-.09-.1V64.57h-8.1v1.35c0,.07,0,.1-.09.1h-.54c-.06,0-.09,0-.09-.1l0-1.07v-.31l0-.5c0-.06,0-.1.09-.1l1.65,0h2.57a3.56,3.56,0,0,0-.09-.9,4.06,4.06,0,0,1,.75.06c.09,0,.14,0,.14.09a.53.53,0,0,1-.07.22,1.76,1.76,0,0,0,0,.53h2.8l1.66,0a.09.09,0,0,1,.1.1l0,.45v.36Zm-1.19,5.44c0,.06,0,.1-.09.1h-.53c-.06,0-.09,0-.09-.1v-.49h-5.18v.5c0,.06,0,.09-.1.09h-.52c-.07,0-.1,0-.1-.09l0-1.41V66.82l0-1.43c0-.07,0-.1.1-.1l1.65,0h2.46l1.55,0c.06,0,.09,0,.09.1l0,.79v.53l0,.8c0,.06,0,.08-.09.08l-1.55,0h-3.49v.92h4.1l1.7,0c.06,0,.09,0,.09.1l0,.93v1ZM164.67,67V65.89h-4.42V67Zm.76,3.3V69.05h-5.18V70.3Zm2.26-8.14a.08.08,0,0,1-.09.09l-1.47,0h-.82a7.18,7.18,0,0,1,.49,1l0,0s0,.07-.12.1l-.34.09-.11,0s-.06,0-.08-.08a7.45,7.45,0,0,0-.52-1.15h-1.13c-.1.17-.25.41-.45.7-.08.09-.13.14-.16.14a.57.57,0,0,1-.19-.11,1.31,1.31,0,0,0-.4-.17,6.22,6.22,0,0,0,1-1.71,2.58,2.58,0,0,0,.13-.52,3.66,3.66,0,0,1,.63.14c.1,0,.15.07.15.13a.21.21,0,0,1-.09.14.9.9,0,0,0-.18.33l-.15.35h2.32l1.47,0a.08.08,0,0,1,.09.09Z"/><path class="cls-12" d="M172.77,67.39a3,3,0,0,0,0,.46c0,.06,0,.1,0,.12s-.07.17-.2.25a20.62,20.62,0,0,1-2.65,1.25,2.26,2.26,0,0,0-.42.19.27.27,0,0,1-.16.07s-.09,0-.12-.1a4.31,4.31,0,0,1-.2-.69,6.47,6.47,0,0,0,1.08-.3l.51-.2v-3h-.19l-1.05,0c-.06,0-.09,0-.09-.1v-.5a.08.08,0,0,1,.09-.09l1.05,0h.19V62.23h-.27l-1.15,0c-.06,0-.08,0-.08-.1v-.52c0-.06,0-.09.08-.09l1.15,0h1.21l1.14,0a.08.08,0,0,1,.09.09v.52c0,.06,0,.1-.09.1l-1.14,0h-.24V64.8h.14l1.06,0s.08,0,.08.09v.5c0,.07,0,.1-.08.1l-1.06,0h-.14v2.71A14.83,14.83,0,0,0,172.77,67.39Zm7,3.37c0,.07,0,.1-.08.1l-1.69,0h-4.34l-1.68,0c-.06,0-.09,0-.09-.1v-.53a.08.08,0,0,1,.09-.09l1.68,0h2V68.6h-.91l-1.56,0c-.06,0-.09,0-.09-.1V68a.08.08,0,0,1,.09-.09l1.56,0h.91V66.58h-.91l-1.56,0c-.07,0-.1,0-.1-.08l0-1.33V62.77l0-1.29c0-.07,0-.1.1-.1l1.56,0h2.63l1.56,0c.06,0,.09,0,.09.1l0,1.29v2.42l0,1.33s0,.08-.09.08l-1.56,0h-1v1.36h1.1l1.55,0c.07,0,.1,0,.1.09v.52a.09.09,0,0,1-.1.1l-1.55,0h-1.1v1.56H178l1.69,0c.05,0,.08,0,.08.09Zm-4.08-7.1V62H173.8v1.64Zm0,2.29v-1.7H173.8V66Zm2.66-2.29V62h-2v1.64Zm0,2.29v-1.7h-2V66Z"/><path class="cls-12" d="M180.71,62.52l.8-.33a16,16,0,0,1,1.25,3.13l-.89.31A15.33,15.33,0,0,0,180.71,62.52Zm1.56,7.94A8.19,8.19,0,0,0,184.62,69a7.09,7.09,0,0,0,1.51-1.83,13.5,13.5,0,0,0,1.22-5.3l1,.21a14,14,0,0,1-1.4,5.55,8.55,8.55,0,0,1-4,3.47Zm1-8.58.81-.27a16,16,0,0,1,1.08,3.08l-.88.3A16.58,16.58,0,0,0,183.25,61.88Z"/><path class="cls-12" d="M189.38,65.7h6.45v.89h-6.45Z"/><path class="cls-12" d="M199.58,61.48c0,2.28,0,3.92-.11,4.93a9.42,9.42,0,0,1-.34,2A5.61,5.61,0,0,1,197.4,71l-.69-.54a4.5,4.5,0,0,0,1.62-2.38,12.16,12.16,0,0,0,.29-2.47c0-.89.06-2.26.06-4.13Zm2.53,8.14a9,9,0,0,0,3.08-4.12l.6.8a10.81,10.81,0,0,1-4.08,4.7l-.51-.26V61.4h.91Z"/><path class="cls-12" d="M179.18,102a12.18,12.18,0,0,0,1.65-3.83,28.1,28.1,0,0,0,.73-4.7l.95.09a29.77,29.77,0,0,1-1,5.43,12.49,12.49,0,0,1-1.58,3.45Zm5.06-8.46.9-.09a22.62,22.62,0,0,0,2.47,8.49l-.88.5A25.5,25.5,0,0,1,184.24,93.53Z"/><path class="cls-12" d="M192.29,96.32A26.27,26.27,0,0,1,189,98.58l-.48-.69a22.25,22.25,0,0,0,3.7-2.58,17,17,0,0,0,2.62-2.8l.78.49a19,19,0,0,1-2.37,2.55v7.15h-.92Z"/><path class="cls-12" d="M196.61,102a12.43,12.43,0,0,0,1.66-3.83,29.17,29.17,0,0,0,.73-4.7l.94.09A28.14,28.14,0,0,1,199,99a12.78,12.78,0,0,1-1.57,3.45Zm5.06-8.46.91-.09a22.62,22.62,0,0,0,2.46,8.49l-.87.5A25.28,25.28,0,0,1,201.67,93.53ZM204.33,92a1.35,1.35,0,0,1,.89,2.34,1.24,1.24,0,0,1-.89.35,1.27,1.27,0,0,1-1-.44,1.33,1.33,0,0,1-.35-.91A1.35,1.35,0,0,1,204.33,92Zm0,.52a.78.78,0,0,0-.61.27.82.82,0,0,0,.61,1.38.77.77,0,0,0,.61-.26.84.84,0,0,0,.21-.57.8.8,0,0,0-.26-.61A.81.81,0,0,0,204.33,92.51Z"/><path class="cls-12" d="M206.24,97.29h6.45v.89h-6.45Z"/><path class="cls-12" d="M220.22,102.07h-5.91v-.8h5V94.43h-5v-.8h5.91Z"/><path class="cls-12" d="M222.63,93.67a20.11,20.11,0,0,1,2.78,1.79l-.59.79a17,17,0,0,0-2.72-1.87Zm6,.6.9.43a10,10,0,0,1-2.21,5,9.4,9.4,0,0,1-4.73,2.76l-.4-.81Q227.71,100.24,228.6,94.27Z"/><path class="cls-12" d="M230.42,102a12.43,12.43,0,0,0,1.66-3.83,29.17,29.17,0,0,0,.73-4.7l.94.09a28.14,28.14,0,0,1-1,5.43,12.49,12.49,0,0,1-1.57,3.45Zm5.06-8.46.91-.09a22.62,22.62,0,0,0,2.46,8.49l-.87.5A25.28,25.28,0,0,1,235.48,93.53Zm1.17-.84.6-.24a15.84,15.84,0,0,1,.88,2l-.64.26A13.11,13.11,0,0,0,236.65,92.69Zm1.32-.41.59-.22a10.11,10.11,0,0,1,.84,2l-.62.25A11.81,11.81,0,0,0,238,92.28Z"/><path class="cls-12" d="M240.07,97.29h6.45v.89h-6.45Z"/><path class="cls-12" d="M247.81,96.44l.41-.72A22.62,22.62,0,0,1,251,97l-.44.8A17.56,17.56,0,0,0,247.81,96.44Zm7.28-1.77.82.47a12.63,12.63,0,0,1-1,2.7,8.31,8.31,0,0,1-1.25,1.91,8.45,8.45,0,0,1-4.7,2.57l-.49-.75a7.69,7.69,0,0,0,4.5-2.4A9.93,9.93,0,0,0,255.09,94.67Zm-6.21-.79.44-.71a16.28,16.28,0,0,1,2.7,1.31l-.47.79A14.68,14.68,0,0,0,248.88,93.88Zm4.7-1.59.61-.24a11.69,11.69,0,0,1,.88,2l-.64.27A10.34,10.34,0,0,0,253.58,92.29Zm1.39-.36.59-.21a9.7,9.7,0,0,1,.85,2l-.62.26A11.13,11.13,0,0,0,255,91.93Z"/><path class="cls-12" d="M259.54,97v5.71h-.91V92.63h.91v3.48a18.66,18.66,0,0,1,4.52,1.9l-.45.87A15.13,15.13,0,0,0,259.54,97Zm2.3-4.61.6-.24a14.81,14.81,0,0,1,.88,2l-.64.27A12.21,12.21,0,0,0,261.84,92.38Zm1.35-.41.6-.22a9.84,9.84,0,0,1,.84,2L264,94A11,11,0,0,0,263.19,92Z"/><path class="cls-12" d="M274.93,102.07H269v-.8h5V94.43h-5v-.8h5.91Z"/><path class="cls-12" d="M277.34,93.67a20.73,20.73,0,0,1,2.78,1.79l-.59.79a17,17,0,0,0-2.72-1.87Zm6,.6.89.43a9.85,9.85,0,0,1-2.2,5,9.4,9.4,0,0,1-4.73,2.76l-.41-.81Q282.42,100.24,283.31,94.27Z"/><path class="cls-12" d="M287,98v2.57c0,.57.17.89.51.94a8.75,8.75,0,0,0,1.73.13,25.46,25.46,0,0,0,2.63-.15v.9q-1.58.09-2.85.09a9.16,9.16,0,0,1-2.07-.17c-.57-.13-.85-.62-.85-1.47V93h.9v4.12a12.92,12.92,0,0,0,3.7-2.46l.6.73A15.33,15.33,0,0,1,287,98Zm4.68-6.19a1.26,1.26,0,0,1,1,.44,1.36,1.36,0,0,1-.1,1.9,1.31,1.31,0,0,1-1.88-.1,1.36,1.36,0,0,1,.1-1.9A1.27,1.27,0,0,1,291.7,91.79Zm0,.51a.78.78,0,0,0-.61.27.81.81,0,0,0-.21.56.8.8,0,0,0,.27.62.79.79,0,0,0,.55.21.78.78,0,0,0,.61-.27.81.81,0,0,0,.21-.56.8.8,0,0,0-.27-.62A.77.77,0,0,0,291.7,92.3Z"/><path class="cls-12" d="M298.5,101.35h1.76v.78H293.5v-.78h4.1l.45-5.27h-3.6V95.3H299Z"/><path class="cls-12" d="M301.17,97.29h6.45v.89h-6.45Z"/><path class="cls-12" d="M312.41,96.63h-3.64v-.78h7.52v.78h-3a18.33,18.33,0,0,1-.12,2.2,4.23,4.23,0,0,1-.28,1.14,5.26,5.26,0,0,1-2.84,2.76l-.59-.67a4.44,4.44,0,0,0,2.59-2.42A10.11,10.11,0,0,0,312.41,96.63Zm-2.94-3.4h6.15V94h-6.15Z"/><path class="cls-12" d="M320.44,97.72a27.24,27.24,0,0,1-2.77,1.68l-.5-.69a15.13,15.13,0,0,0,5.43-4.26l.73.55a13.46,13.46,0,0,1-2,2v5.67h-.87Z"/><path class="cls-12" d="M325.1,93.67a20.73,20.73,0,0,1,2.78,1.79l-.59.79a17,17,0,0,0-2.72-1.87Zm6,.6.89.43a9.85,9.85,0,0,1-2.2,5,9.4,9.4,0,0,1-4.73,2.76l-.4-.81Q330.18,100.24,331.07,94.27Z"/><path class="cls-12" d="M339.65,93.83a11.94,11.94,0,0,0-.71-1.66l.6-.24a15.84,15.84,0,0,1,.88,2l-.48.19.39.51a11.63,11.63,0,0,1-2.29,5.63,8.92,8.92,0,0,1-3.59,2.5l-.53-.65a8.16,8.16,0,0,0,3.8-2.84,10.88,10.88,0,0,0,1.67-4.68h-3.34a11.35,11.35,0,0,1-2.18,3.45l-.68-.52a10.62,10.62,0,0,0,2.56-5l.93.15c-.08.31-.19.68-.34,1.13Zm.68-1.93.59-.22a9.84,9.84,0,0,1,.84,2l-.62.25A11.81,11.81,0,0,0,340.33,91.9Z"/><path class="cls-12" d="M343,100.05a13.05,13.05,0,0,1,1.39,1.32,8.41,8.41,0,0,1,1,1.27l-.78.58a9.53,9.53,0,0,0-2.28-2.6Z"/><path class="cls-12" d="M210.07,113.08a10.78,10.78,0,0,1-4.23,3.79l-.52-.69a10.48,10.48,0,0,0,3.87-3.37,12.26,12.26,0,0,0,1.73-4.32h-5v-.81h6.14a15.83,15.83,0,0,1-1.56,4.6,27.22,27.22,0,0,1,2.76,4l-.87.56A22.12,22.12,0,0,0,210.07,113.08Z"/><path class="cls-12" d="M216.76,111.29V117h-.92V106.93h.92v3.48a18.57,18.57,0,0,1,4.51,1.9l-.45.87A15.2,15.2,0,0,0,216.76,111.29Z"/><path class="cls-12" d="M224.28,115.91a7.2,7.2,0,0,0,3-1.9,8.63,8.63,0,0,0,1.83-2.83l.68.65a9.37,9.37,0,0,1-2.52,3.4,11,11,0,0,1-3.38,1.84l-.55-.4v-9.32h.92Z"/><path class="cls-12" d="M230.72,111.59h6.45v.89h-6.45Z"/><path class="cls-12" d="M238.47,110.74l.4-.72a23.78,23.78,0,0,1,2.79,1.23l-.45.8A16.54,16.54,0,0,0,238.47,110.74Zm7.27-1.77.82.47a12.63,12.63,0,0,1-1,2.7,8.3,8.3,0,0,1-1.24,1.91,8.51,8.51,0,0,1-4.71,2.57l-.49-.76a7.68,7.68,0,0,0,4.51-2.39A9.93,9.93,0,0,0,245.74,109Zm-6.21-.79.44-.71a17.23,17.23,0,0,1,2.7,1.3l-.47.8A14.35,14.35,0,0,0,239.53,108.18Zm4.71-1.59.6-.24a11.69,11.69,0,0,1,.88,2l-.64.27A10.32,10.32,0,0,0,244.24,106.59Zm1.39-.36.59-.21a9.73,9.73,0,0,1,.84,2l-.62.26A11.61,11.61,0,0,0,245.63,106.23Z"/><path class="cls-12" d="M248.49,114.35a13.05,13.05,0,0,1,1.39,1.32,7.92,7.92,0,0,1,1,1.27l-.78.58a9.75,9.75,0,0,0-2.29-2.6Z"/><path class="cls-12" d="M260.35,108.48H263l.26.57a19.21,19.21,0,0,1-2.91,2.93v5h-.92v-4.34a20,20,0,0,1-3.58,2l-.48-.68a16.26,16.26,0,0,0,6.54-4.66h-5.81v-.8h3.31v-1.73h.91Zm.79,3.89.54-.61a20.36,20.36,0,0,1,2.65,2.09l-.58.77A16.39,16.39,0,0,0,261.14,112.37Z"/><path class="cls-12" d="M265.33,110l.76-.33a17.27,17.27,0,0,1,1,2.61l-.79.31A14,14,0,0,0,265.33,110Zm1.32,6.51a6.12,6.12,0,0,0,3.18-2.65,10.22,10.22,0,0,0,1-4.42l.86.19a11.46,11.46,0,0,1-1.18,4.68,5.61,5.61,0,0,1-1.42,1.67,8.51,8.51,0,0,1-2,1.13Zm.92-7,.75-.32a15.33,15.33,0,0,1,.87,2.57l-.78.34A11.76,11.76,0,0,0,267.57,109.5Z"/><path class="cls-12" d="M275.44,111.29V117h-.92V106.93h.92v3.48a18.57,18.57,0,0,1,4.51,1.9l-.45.87A15.2,15.2,0,0,0,275.44,111.29Z"/><path class="cls-12" d="M282.49,108.45v3.49h-.91v-4.29h6.71a18.41,18.41,0,0,1-.64,5.64,5.75,5.75,0,0,1-1.59,2.36A6.8,6.8,0,0,1,283.7,117l-.59-.66a5.31,5.31,0,0,0,3.65-3.29,14.87,14.87,0,0,0,.59-4.64Z"/><path class="cls-12" d="M289.74,111.59h6.45v.89h-6.45Z"/><path class="cls-12" d="M301,113l-3.63.51-.13-.79,3.63-.51-.38-2.16-3,.4-.13-.8,3-.39L300,107l.89-.14.37,2.21,3-.4.12.79-3,.4.36,2.15,3.14-.44.11.79-3.1.44.7,4-.88.16Z"/><path class="cls-12" d="M306.79,108a20.73,20.73,0,0,1,2.78,1.79l-.59.79a16.7,16.7,0,0,0-2.73-1.87Zm6,.6.89.43a9.85,9.85,0,0,1-2.2,5,9.4,9.4,0,0,1-4.73,2.76l-.41-.81Q311.88,114.54,312.76,108.57Z"/><path class="cls-12" d="M321.34,108.12a12.21,12.21,0,0,0-.72-1.65l.61-.24a15.84,15.84,0,0,1,.88,2l-.48.19.38.51a11.53,11.53,0,0,1-2.28,5.63,8.89,8.89,0,0,1-3.6,2.5l-.52-.65a8.16,8.16,0,0,0,3.8-2.84,10.88,10.88,0,0,0,1.67-4.68h-3.34a11.19,11.19,0,0,1-2.19,3.45l-.67-.52a10.61,10.61,0,0,0,2.55-5l.94.15c-.08.31-.19.68-.34,1.12Zm.67-1.92.59-.22a9.81,9.81,0,0,1,.85,2l-.62.25A11,11,0,0,0,322,106.2Z"/><path class="cls-12" d="M23.07,92.4a11.16,11.16,0,0,1-2.18,3.45l-.68-.52a10.53,10.53,0,0,0,2.56-5l.94.15c-.09.31-.2.68-.35,1.12h4.11a12.91,12.91,0,0,1-2.26,6.31,8.84,8.84,0,0,1-3.74,2.66l-.53-.64a8.24,8.24,0,0,0,3.8-2.85,10.88,10.88,0,0,0,1.67-4.68Z"/><path class="cls-12" d="M29,93.46h6.7A8,8,0,0,1,34,98.57a7.14,7.14,0,0,1-3.65,1.94L30,99.83a6.36,6.36,0,0,0,3.58-2.07,6,6,0,0,0,1.16-3.5H29Zm.73-2.56h5.37v.8H29.72Z"/><path class="cls-12" d="M41.25,92h3q0,4.2-1.32,6.13a7,7,0,0,1-3.58,2.44l-.49-.7a6.05,6.05,0,0,0,3.43-2.41,9,9,0,0,0,1-4.66H38.23v3h-.92V92h3V90.23h.91Z"/><path class="cls-12" d="M48.06,94.77v5.71h-.91V90.41h.91v3.48a18.66,18.66,0,0,1,4.52,1.9l-.46.87A15.05,15.05,0,0,0,48.06,94.77Zm2.3-4.61.6-.24a14.81,14.81,0,0,1,.88,2l-.64.27A12.21,12.21,0,0,0,50.36,90.16Zm1.35-.41.59-.22a9.84,9.84,0,0,1,.84,2l-.61.25A11.77,11.77,0,0,0,51.71,89.75Z"/><path class="cls-12" d="M63.45,99.85H57.54v-.8h5V92.21h-5v-.8h5.91Z"/><path class="cls-12" d="M65.86,91.45a20.73,20.73,0,0,1,2.78,1.79l-.59.79a16.7,16.7,0,0,0-2.73-1.87Zm6,.6.89.43a9.85,9.85,0,0,1-2.2,5,9.4,9.4,0,0,1-4.73,2.76l-.41-.81Q70.95,98,71.83,92.05Z"/><path class="cls-12" d="M75.54,95.76v2.57c0,.57.17.89.51.94a8.75,8.75,0,0,0,1.73.13,25.61,25.61,0,0,0,2.63-.15v.9c-1,.06-2,.09-2.86.09a9.12,9.12,0,0,1-2.06-.17c-.57-.13-.85-.62-.85-1.47V90.8h.9v4.12a12.92,12.92,0,0,0,3.7-2.46l.6.73A15.33,15.33,0,0,1,75.54,95.76Zm4.68-6.19a1.26,1.26,0,0,1,1,.44,1.36,1.36,0,0,1,.34.9,1.31,1.31,0,0,1-.44,1,1.28,1.28,0,0,1-.89.35,1.25,1.25,0,0,1-1-.45,1.28,1.28,0,0,1-.34-.9,1.33,1.33,0,0,1,.44-1A1.27,1.27,0,0,1,80.22,89.57Zm0,.51a.78.78,0,0,0-.61.27.81.81,0,0,0-.21.56.8.8,0,0,0,.27.62.79.79,0,0,0,.55.21.78.78,0,0,0,.61-.27.81.81,0,0,0,.21-.56.8.8,0,0,0-.27-.62A.79.79,0,0,0,80.22,90.08Z"/><path class="cls-12" d="M87,99.13h1.75v.78H82v-.78h4.1l.45-5.27H83v-.78h4.57Z"/><path class="cls-12" d="M89.69,95.07h6.44V96H89.69Z"/><path class="cls-12" d="M100.93,94.41H97.29v-.78h7.52v.78h-3a18.33,18.33,0,0,1-.12,2.2,4.75,4.75,0,0,1-.28,1.14,5.26,5.26,0,0,1-2.84,2.76L98,99.84a4.42,4.42,0,0,0,2.58-2.42A10,10,0,0,0,100.93,94.41ZM98,91h6.15v.79H98Z"/><path class="cls-12" d="M24.71,110a28.64,28.64,0,0,1-2.78,1.68l-.49-.69a15.3,15.3,0,0,0,5.43-4.26l.72.55a13.46,13.46,0,0,1-2,2V115h-.86Z"/><path class="cls-12" d="M29.36,106a20.27,20.27,0,0,1,2.79,1.79l-.59.79a17.62,17.62,0,0,0-2.73-1.87Zm6,.6.89.43A9.86,9.86,0,0,1,34,112a9.36,9.36,0,0,1-4.73,2.76l-.4-.81Q34.46,112.52,35.34,106.55Z"/><path class="cls-12" d="M43.91,106.1a11.13,11.13,0,0,0-.71-1.65l.61-.24a14.77,14.77,0,0,1,.87,2l-.47.19.38.51a11.53,11.53,0,0,1-2.28,5.63,8.89,8.89,0,0,1-3.6,2.5l-.52-.64A8.21,8.21,0,0,0,42,111.58a10.75,10.75,0,0,0,1.67-4.68H40.31a11,11,0,0,1-2.18,3.45l-.68-.52a10.53,10.53,0,0,0,2.56-5L41,105c-.08.31-.2.68-.34,1.12Zm.68-1.92.59-.22a9.84,9.84,0,0,1,.84,2l-.61.25A12.65,12.65,0,0,0,44.59,104.18Z"/><path class="cls-12" d="M47.25,112.33a13.05,13.05,0,0,1,1.39,1.32,7.92,7.92,0,0,1,1,1.27l-.78.58a9.75,9.75,0,0,0-2.29-2.6Z"/><path class="cls-12" d="M58.91,111.06a10.57,10.57,0,0,1-4.23,3.79l-.52-.69A10.48,10.48,0,0,0,58,110.79a12.46,12.46,0,0,0,1.74-4.32h-5v-.8h6.15a16.17,16.17,0,0,1-1.57,4.59,25.77,25.77,0,0,1,2.76,4l-.87.56A22.12,22.12,0,0,0,58.91,111.06Z"/><path class="cls-12" d="M65.6,109.27V115h-.92V104.91h.92v3.48a18.57,18.57,0,0,1,4.51,1.9l-.45.87A15.05,15.05,0,0,0,65.6,109.27Z"/><path class="cls-12" d="M73.12,113.89a7.2,7.2,0,0,0,3-1.9A8.82,8.82,0,0,0,78,109.16l.67.65a9.37,9.37,0,0,1-2.52,3.4,10.81,10.81,0,0,1-3.38,1.84l-.54-.4v-9.32h.91Z"/><path class="cls-12" d="M79.57,109.57H86v.89H79.57Z"/><path class="cls-12" d="M87.31,108.72l.4-.72a23.78,23.78,0,0,1,2.79,1.23l-.44.8A16.7,16.7,0,0,0,87.31,108.72ZM94.58,107l.83.47a12.66,12.66,0,0,1-1,2.7A8.3,8.3,0,0,1,93.19,112a8.51,8.51,0,0,1-4.71,2.57l-.48-.75a7.69,7.69,0,0,0,4.5-2.4A9.93,9.93,0,0,0,94.58,107Zm-6.21-.79.44-.71a16.86,16.86,0,0,1,2.71,1.31l-.48.79A14,14,0,0,0,88.37,106.16Zm4.71-1.59.61-.24a12.57,12.57,0,0,1,.87,2l-.64.27A10.32,10.32,0,0,0,93.08,104.57Zm1.39-.36.59-.21a9.73,9.73,0,0,1,.84,2l-.62.26A12,12,0,0,0,94.47,104.21Z"/><path class="cls-12" d="M97.33,112.33a13.05,13.05,0,0,1,1.39,1.32,7.92,7.92,0,0,1,1,1.27l-.78.58a9.57,9.57,0,0,0-2.29-2.6Z"/><path class="cls-12" d="M33.67,121h2.68l.26.57a18.81,18.81,0,0,1-2.92,2.93v5h-.92v-4.34a19.89,19.89,0,0,1-3.57,1.95l-.49-.68a16.12,16.12,0,0,0,6.54-4.66h-5.8V121h3.3v-1.73h.92Zm.79,3.89.53-.61a20.48,20.48,0,0,1,2.66,2.09l-.58.77A17.32,17.32,0,0,0,34.46,124.85Z"/><path class="cls-12" d="M38.65,122.49l.76-.33a16.35,16.35,0,0,1,1,2.61l-.78.31A15.88,15.88,0,0,0,38.65,122.49ZM40,129a6.09,6.09,0,0,0,3.18-2.65,10.22,10.22,0,0,0,1-4.42l.87.19a11.45,11.45,0,0,1-1.19,4.68,5.47,5.47,0,0,1-1.42,1.67,8.3,8.3,0,0,1-2,1.13Zm.93-7,.74-.31a14.88,14.88,0,0,1,.87,2.56l-.77.34A12.92,12.92,0,0,0,40.89,122Z"/><path class="cls-12" d="M48.75,123.77v5.71h-.91V119.41h.91v3.48a18.66,18.66,0,0,1,4.52,1.9l-.46.87A15.05,15.05,0,0,0,48.75,123.77Z"/><path class="cls-12" d="M55.8,120.93v3.5h-.91v-4.3h6.72a18.35,18.35,0,0,1-.65,5.64,5.63,5.63,0,0,1-1.58,2.36A6.84,6.84,0,0,1,57,129.52l-.58-.66a5.31,5.31,0,0,0,3.64-3.29,14.87,14.87,0,0,0,.59-4.64Z"/><path class="cls-12" d="M63.05,124.07H69.5V125H63.05Z"/><path class="cls-12" d="M74.29,125.43l-3.62.51-.13-.79,3.62-.51-.38-2.16-3,.4-.13-.8,3-.39-.38-2.19.89-.14.38,2.21,3-.4.12.79-3,.4.37,2.15,3.13-.44.12.79-3.11.44.7,4-.88.16Z"/><path class="cls-12" d="M80.1,120.45a20.11,20.11,0,0,1,2.78,1.79l-.59.79a17,17,0,0,0-2.72-1.87Zm6,.6.9.43a10,10,0,0,1-2.21,5A9.4,9.4,0,0,1,80,129.22l-.4-.81Q85.18,127,86.07,121.05Z"/><path class="cls-12" d="M94.65,120.6a11.13,11.13,0,0,0-.71-1.65l.61-.24a17.83,17.83,0,0,1,.87,2l-.47.19.38.51a11.53,11.53,0,0,1-2.28,5.63,9,9,0,0,1-3.6,2.5l-.52-.64a8.26,8.26,0,0,0,3.79-2.85,10.88,10.88,0,0,0,1.67-4.68H91.05a11.16,11.16,0,0,1-2.18,3.45l-.68-.52a10.53,10.53,0,0,0,2.56-5l.94.15c-.08.31-.2.68-.34,1.12Zm.68-1.92.59-.22a9.84,9.84,0,0,1,.84,2l-.62.25A11.81,11.81,0,0,0,95.33,118.68Z"/><path class="cls-12" d="M163.66,183.06l-.46,1.05a13.29,13.29,0,0,1-3.94,4.36l-.57-.64a12.81,12.81,0,0,0,4.34-5.37h-4v-.81h4.51l-.08-2.11h.91l.09,2.11h2.28v.81h-2.26l.28,7.14h-.92l-.19-5.08Z"/><path class="cls-12" d="M168.69,180.57a20.77,20.77,0,0,1,2.82,1.79l-.6.79a17.76,17.76,0,0,0-2.76-1.87Zm6.05.6.9.44a9.84,9.84,0,0,1-2.23,5,9.63,9.63,0,0,1-4.79,2.77l-.41-.82Q173.84,187.15,174.74,181.17Z"/><path class="cls-12" d="M183.53,181.2a11.42,11.42,0,0,1-1.17,5.08,7.69,7.69,0,0,1-4.39,3.34l-.5-.72a7.32,7.32,0,0,0,3.9-2.78,9,9,0,0,0,1.17-4.92h-5.6v-.81h5.75a1.32,1.32,0,0,1-.08-.47,1.29,1.29,0,0,1,.44-1,1.33,1.33,0,0,1,2.24,1,1.33,1.33,0,0,1-1.34,1.35A1.16,1.16,0,0,1,183.53,181.2Zm.42-2.1a.8.8,0,0,0-.62.27.79.79,0,0,0-.21.55.83.83,0,0,0,.27.63.81.81,0,0,0,.56.21.8.8,0,0,0,.62-.27.84.84,0,0,0,.21-.57.78.78,0,0,0-.27-.61A.79.79,0,0,0,184,179.1Z"/><path class="cls-12" d="M187.84,188.51a7.27,7.27,0,0,0,3.06-1.9,8.7,8.7,0,0,0,1.86-2.83l.69.66a9.31,9.31,0,0,1-2.56,3.39,10.92,10.92,0,0,1-3.42,1.84l-.55-.39V180h.92Z"/><path class="cls-12" d="M194.69,187.76l.36-.75a26.78,26.78,0,0,1,5.61,1.75l-.42.85A23.37,23.37,0,0,0,194.69,187.76Zm.21-3.74.36-.77a29.66,29.66,0,0,1,4.32,1.1l-.42.87A19.47,19.47,0,0,0,194.9,184Zm.54-3.36.32-.78a27.7,27.7,0,0,1,4.55,1.09l-.4.9A19.94,19.94,0,0,0,195.44,180.66Z"/><path class="cls-12" d="M206.49,185.68a10.74,10.74,0,0,1-4.29,3.79l-.53-.69a10.43,10.43,0,0,0,3.93-3.37,12.09,12.09,0,0,0,1.75-4.32h-5v-.8h6.23a16.17,16.17,0,0,1-1.58,4.59,28,28,0,0,1,2.79,4l-.88.56A22.32,22.32,0,0,0,206.49,185.68Z"/><path class="cls-12" d="M226.2,155.62a2.09,2.09,0,0,0-.31.43c-.06.13-.12.2-.17.2a.57.57,0,0,1-.16,0,10.39,10.39,0,0,1-4.41-2.38c0,.84,0,1.57,0,2.19,0,.38,0,.57,0,.58s0,.1-.09.1h-.57c-.06,0-.09,0-.09-.1s0-.16,0-.4c0-.7.05-1.48.05-2.35a8.27,8.27,0,0,1-2,1.51,14.1,14.1,0,0,1-2.22.91.54.54,0,0,1-.17,0c-.05,0-.11-.06-.17-.19a1.17,1.17,0,0,0-.32-.41,9.88,9.88,0,0,0,4.32-2.11H217.5l-1.54,0a.09.09,0,0,1-.1-.1v-.43a.09.09,0,0,1,.1-.1l1.54,0h3v-1h-1.75l-1.66,0c-.06,0-.09,0-.09-.08v-.42c0-.07,0-.11.09-.11l1.66,0h1.75v-.92h-2.33l-1.61,0c-.07,0-.11,0-.11-.09v-.44c0-.06,0-.09.11-.09l1.61,0h.94a4.11,4.11,0,0,0-.49-1,.13.13,0,0,1,0-.07s0-.05.13-.09l.3-.1.11,0s.05,0,.08.06a6.53,6.53,0,0,1,.62,1.27H222a6.88,6.88,0,0,0,.44-.87c0-.12.09-.28.14-.48l.62.16c.09,0,.13.08.13.14s0,.09-.1.14a.7.7,0,0,0-.17.25,5.69,5.69,0,0,1-.39.66h1l1.63,0a.08.08,0,0,1,.09.09v.44a.08.08,0,0,1-.09.09l-1.63,0h-2.5v.92h2l1.66,0c.06,0,.09,0,.09.11V152c0,.05,0,.08-.09.08l-1.66,0h-2v1h3.22l1.54,0a.09.09,0,0,1,.1.1v.43a.09.09,0,0,1-.1.1l-1.54,0h-2.67A10.92,10.92,0,0,0,226.2,155.62Zm-.16-7.17a.09.09,0,0,1-.1.1l-1.54,0h-6.9l-1.54,0a.09.09,0,0,1-.1-.1V148c0-.07,0-.11.1-.11l1.54,0h.41a6,6,0,0,0-.83-1.28.09.09,0,0,1,0-.06s0-.06.1-.09l.32-.17a.16.16,0,0,1,.09,0s0,0,.07,0a7.14,7.14,0,0,1,.84,1.22.14.14,0,0,1,0,.06s0,.05-.09.09l-.39.22h1.55V147a5.46,5.46,0,0,0-.07-1.09c.26,0,.5,0,.71.06s.12.06.12.11a.41.41,0,0,1,0,.17,2.57,2.57,0,0,0-.06.75v.91h1.25v-.89a5.19,5.19,0,0,0-.08-1.09l.72,0q.12,0,.12.12a.79.79,0,0,1-.05.15,2.89,2.89,0,0,0-.07.75v.91h1.09a9.41,9.41,0,0,0,.66-1.13,2.33,2.33,0,0,0,.18-.57,5.37,5.37,0,0,1,.67.23q.12,0,.12.12a.21.21,0,0,1-.09.16.63.63,0,0,0-.2.24c-.2.33-.41.65-.63.95h.5l1.54,0a.1.1,0,0,1,.1.11Z"/><path class="cls-12" d="M237.84,153.25a1.57,1.57,0,0,0-.34.49c-.06.13-.11.19-.15.19l-.18-.05a8,8,0,0,1-4-3H231.7a7.51,7.51,0,0,1-3.93,3l-.18.06c-.05,0-.1-.07-.16-.2a1.5,1.5,0,0,0-.3-.43,6.74,6.74,0,0,0,3.74-2.43h-.47l-1.68,0c-.06,0-.09,0-.09-.1l0-1.18v-1.89l0-1.18a.08.08,0,0,1,.09-.09l1.68,0h4.28l1.68,0a.08.08,0,0,1,.09.09l0,1.18v1.89l0,1.18c0,.06,0,.1-.09.1l-1.68,0h-.76a6.33,6.33,0,0,0,1.73,1.44A9.39,9.39,0,0,0,237.84,153.25Zm-6.24-.59a.44.44,0,0,1,0,.1l0,.11s0,.21-.08.54a3.74,3.74,0,0,1-.73,2,4.21,4.21,0,0,1-1.84,1.22.41.41,0,0,1-.17.05s-.09-.06-.17-.18a1.21,1.21,0,0,0-.4-.38,4,4,0,0,0,2-1.16,2.84,2.84,0,0,0,.56-1.54c0-.13,0-.25,0-.37a3.14,3.14,0,0,0-.05-.64,4.31,4.31,0,0,1,.71.09C231.54,152.56,231.6,152.6,231.6,152.66Zm.55-4.24v-1.29h-2.8v1.29Zm0,1.89V149h-2.8v1.32Zm3.57-1.89v-1.29h-2.89v1.29Zm0,1.89V149h-2.89v1.32Zm-1.27,2.33a1.24,1.24,0,0,1-.06.22,7.07,7.07,0,0,0,0,1.15v1.1l0,1.5a.1.1,0,0,1-.11.11h-.55c-.06,0-.09,0-.09-.11l0-1.5V154a9.68,9.68,0,0,0-.09-1.58c.35,0,.61,0,.77.06S234.45,152.57,234.45,152.64Z"/><path class="cls-12" d="M242.27,151.53a2.46,2.46,0,0,0-.3.44q0,.12-.09.12s0,0-.09-.12a9.55,9.55,0,0,1-.89-2.18c0,1.58,0,3.25.06,5,0,.44,0,.92,0,1.45,0,.27,0,.41,0,.43a.08.08,0,0,1-.09.09h-.55a.08.08,0,0,1-.09-.09l0-1c.06-2.06.09-4,.1-5.76a16.52,16.52,0,0,1-1.31,3.92c-.05.09-.08.13-.1.13s-.08,0-.11-.11a1.29,1.29,0,0,0-.29-.45,18.31,18.31,0,0,0,1.61-4.24H240l-1,0c-.07,0-.1,0-.1-.1v-.48a.09.09,0,0,1,.1-.1l1,0h.33v-1.06a9.91,9.91,0,0,0-.08-1.46,5.82,5.82,0,0,1,.73.07c.1,0,.14.05.14.1a1,1,0,0,1-.06.24,4.42,4.42,0,0,0-.06,1v1.08h0l1,0a.1.1,0,0,1,.11.1V149c0,.07,0,.1-.11.1l-1,0A7.93,7.93,0,0,0,242.27,151.53Zm2,2.86a.11.11,0,0,1-.08.11,1.07,1.07,0,0,0-.23.24,7.38,7.38,0,0,1-1.52,1.48.54.54,0,0,1-.17.09s-.08,0-.18-.14a1.21,1.21,0,0,0-.36-.29,5.5,5.5,0,0,0,1.62-1.41,1.6,1.6,0,0,0,.25-.46,6.08,6.08,0,0,1,.58.25C244.2,154.3,244.23,154.34,244.23,154.39Zm5.15-.93c0,.06,0,.1-.09.1l-1.64,0H246v.66l0,1.4a1.08,1.08,0,0,1-.28.82,2.41,2.41,0,0,1-1.28.22.36.36,0,0,1-.21,0,.57.57,0,0,1-.07-.19,2,2,0,0,0-.2-.5,6.87,6.87,0,0,0,.89.07c.3,0,.44-.15.44-.46v-2h-1.52l-1.63,0a.09.09,0,0,1-.1-.1V153c0-.07,0-.11.1-.11l1.63,0h3.86l1.64,0c.06,0,.09,0,.09.11Zm-.06-6.41a.08.08,0,0,1-.09.09l-1.63,0h-.74v1h.27l1.58,0a.08.08,0,0,1,.09.09l0,.81v.71l0,.8c0,.07,0,.1-.09.1l-1.58,0h-2.87l-1.59,0c-.06,0-.09,0-.09-.1l0-.8V149l0-.81a.08.08,0,0,1,.09-.09l1.58,0h.2v-1h-.59l-1.63,0a.08.08,0,0,1-.09-.09v-.44c0-.07,0-.1.09-.1l1.63,0h3.74l1.63,0c.06,0,.09,0,.09.1Zm-.91,5s0,.08-.09.08l-1.47,0h-2.34l-1.47,0c-.06,0-.09,0-.09-.08v-.46a.08.08,0,0,1,.09-.09l1.47,0h2.34l1.47,0a.08.08,0,0,1,.09.09Zm-4-2V148.7h-1.22v1.36Zm1.81-1.91v-1H245v1Zm0,1.91V148.7H245v1.36Zm1.89,0V148.7h-1.29v1.36Zm1.38,5.65a1.8,1.8,0,0,0-.33.36c-.07.12-.12.17-.15.17s-.08,0-.17-.1a10.92,10.92,0,0,1-1.72-1.69.17.17,0,0,1,0-.07s0-.07.12-.12l.25-.15c.06,0,.09-.06.11-.06s0,0,.07,0A7.84,7.84,0,0,0,249.53,155.71Z"/><path class="cls-12" d="M260.81,154.43c0,.06,0,.09-.1.09l-1.54,0H256v.73l0,1.39a.08.08,0,0,1-.09.09h-.57c-.07,0-.1,0-.1-.09l0-1.39v-.73h-3l-1.54,0a.08.08,0,0,1-.09-.09v-.49a.08.08,0,0,1,.09-.09l1.54,0h3a8,8,0,0,0-.08-1,6.11,6.11,0,0,1,.78.07c.08,0,.13,0,.13.09a.57.57,0,0,1-.06.21,2.21,2.21,0,0,0-.06.67h3.2l1.54,0c.07,0,.1,0,.1.09Zm-8.19-5.37a.07.07,0,0,1,0,.06.42.42,0,0,1,0,.12l-.2.3c-.07.09-.11.14-.13.14a.13.13,0,0,1-.07,0,6.48,6.48,0,0,0-1.46-.87s-.06,0-.06-.07a.4.4,0,0,1,.06-.13l.21-.27c0-.05.07-.08.09-.08l.06,0A7.76,7.76,0,0,1,252.62,149.06Zm.66,1.65a.85.85,0,0,1,.05.18.39.39,0,0,1-.13.23,17.46,17.46,0,0,1-1.49,1.49,2,2,0,0,0-.37.38.16.16,0,0,1-.13.11.17.17,0,0,1-.12-.08c-.14-.21-.27-.4-.38-.6a3.61,3.61,0,0,0,.75-.49,12.22,12.22,0,0,0,1.69-1.69A1.93,1.93,0,0,0,253.28,150.71Zm.05-3.66a.08.08,0,0,1,0,.07.24.24,0,0,1-.06.11l-.21.29c-.05.07-.09.11-.12.11a.12.12,0,0,1-.09,0,6.41,6.41,0,0,0-1.42-1s-.06,0-.06-.06a.6.6,0,0,1,.08-.13l.19-.28s.07-.07.11-.07h.06A7.5,7.5,0,0,1,253.33,147.05Zm7.26,5.45a.08.08,0,0,1-.09.09l-1.56,0h-2.87l-1.59,0a.08.08,0,0,1-.09-.09l0-1.37v-2.52a9,9,0,0,1-.66.74.69.69,0,0,1-.16.12s-.07,0-.16-.13a1.14,1.14,0,0,0-.32-.26,8.5,8.5,0,0,0,1.83-2.46,3.3,3.3,0,0,0,.27-.78,5.16,5.16,0,0,1,.68.17c.08,0,.12.08.12.14s0,.11-.12.17a1.27,1.27,0,0,0-.31.46c-.13.27-.25.48-.34.63h1.88a6,6,0,0,0,.39-.85,3.31,3.31,0,0,0,.17-.65,3.74,3.74,0,0,1,.67.18q.12,0,.12.12s0,.09-.1.14a.44.44,0,0,0-.14.19l-.46.87h1.06l1.47,0a.08.08,0,0,1,.09.09v.4c0,.07,0,.1-.09.1l-1.47,0h-1.1v.94h.78l1.41,0c.07,0,.1,0,.1.1v.4c0,.06,0,.09-.1.09l-1.41,0h-.78v1h.74l1.42,0a.08.08,0,0,1,.09.09v.4a.08.08,0,0,1-.09.09l-1.42,0h-.74V152h2.76c.06,0,.09,0,.09.08Zm-3.48-3.6V148h-2.05v.94Zm0,1.51v-1h-2.05v1Zm0,1.61V151h-2.05V152Z"/><path class="cls-12" d="M266.81,148a19.21,19.21,0,0,1-1.25,6.31,1.74,1.74,0,0,1-1.58,1.27,1.46,1.46,0,0,1-1.34-.9,5.21,5.21,0,0,1-.45-2.39,6.56,6.56,0,0,1,.38-2.25,4.56,4.56,0,0,1,.87-1.48,3.88,3.88,0,0,1,1.44-1,4.44,4.44,0,0,1,1.65-.32,3.43,3.43,0,0,1,3,1.28,5.56,5.56,0,0,1,.81,3.27,4.5,4.5,0,0,1-.94,2.91,4.61,4.61,0,0,1-2.74,1.53l-.41-.72a3.62,3.62,0,0,0,3.21-3.95,4.09,4.09,0,0,0-.86-2.83A2.33,2.33,0,0,0,266.81,148Zm-.89.1a2.45,2.45,0,0,0-1.08.34,3.73,3.73,0,0,0-.88.8,4.57,4.57,0,0,0-1,3.07,4,4,0,0,0,.34,1.82c.18.35.39.53.63.53a.71.71,0,0,0,.52-.22,2.19,2.19,0,0,0,.37-.65A17.16,17.16,0,0,0,265.92,148.11Z"/><path class="cls-12" d="M271.3,155.63a12.3,12.3,0,0,0,1.64-3.83,30.26,30.26,0,0,0,.72-4.7l.93.09a29,29,0,0,1-.95,5.43,12.47,12.47,0,0,1-1.55,3.45Zm5-8.46.89-.08a22.7,22.7,0,0,0,2.44,8.48l-.86.5A25.5,25.5,0,0,1,276.3,147.17Z"/><path class="cls-12" d="M280.49,150.94h6.37v.89h-6.37Z"/><path class="cls-12" d="M290.33,150.64v5.7h-.9V146.27h.9v3.48a17.74,17.74,0,0,1,4.46,1.91l-.44.86A14.47,14.47,0,0,0,290.33,150.64ZM292.6,146l.6-.24a14.77,14.77,0,0,1,.87,2l-.64.26A11.48,11.48,0,0,0,292.6,146Zm1.34-.41.59-.22a10.8,10.8,0,0,1,.83,2l-.61.25A11.81,11.81,0,0,0,293.94,145.61Z"/><path class="cls-12" d="M300.32,147.84h3q0,4.2-1.31,6.13a6.93,6.93,0,0,1-3.54,2.44l-.48-.7a6,6,0,0,0,3.39-2.41,9.11,9.11,0,0,0,1-4.66h-5v3h-.91v-3.77h3v-1.75h.9Z"/><path class="cls-12" d="M307.07,149.72H305v-.78h5.2v.78H308V155h2.56v.78h-5.93V155h2.49Z"/><path class="cls-12" d="M311.75,146.93h7.63a8.5,8.5,0,0,1-.72,2.65,5.89,5.89,0,0,1-1.41,1.81l-.69-.58a5.24,5.24,0,0,0,1.23-1.51,4.12,4.12,0,0,0,.5-1.56h-6.54Zm.35,8.66a4.62,4.62,0,0,0,2.11-1.8,6.63,6.63,0,0,0,.64-3.18v-1.89h.9v1.92a6.87,6.87,0,0,1-.94,3.85,5.91,5.91,0,0,1-2.14,1.79Z"/><path class="cls-12" d="M29.69,155.86H28.62l-.87-2.36H24.28l-.82,2.36H22.39l3.14-8.4h1Zm-2.25-3.24L26.15,149a3.81,3.81,0,0,1-.12-.57h0a2.7,2.7,0,0,1-.13.57l-1.27,3.58Z"/><path class="cls-12" d="M34.73,150.13,31.27,155H34.7v.82H29.89v-.3l3.47-4.88H30.22v-.82h4.51Z"/><path class="cls-12" d="M40.56,155.86h-.93v-1h0A1.91,1.91,0,0,1,37.8,156c-1.4,0-2.1-.85-2.1-2.56v-3.58h.94v3.43c0,1.27.47,1.9,1.41,1.9a1.4,1.4,0,0,0,1.13-.52,2,2,0,0,0,.45-1.36v-3.45h.93Z"/><path class="cls-12" d="M45.39,150.83a1.11,1.11,0,0,0-.71-.19,1.18,1.18,0,0,0-1,.58,2.7,2.7,0,0,0-.4,1.58v3.06h-.94v-6h.94v1.23h0a2.06,2.06,0,0,1,.61-1,1.37,1.37,0,0,1,.92-.36,1.58,1.58,0,0,1,.56.08Z"/><path class="cls-12" d="M51,153.1H46.87a2.25,2.25,0,0,0,.52,1.54,1.78,1.78,0,0,0,1.38.55,2.79,2.79,0,0,0,1.82-.67v.9a3.27,3.27,0,0,1-2,.58,2.44,2.44,0,0,1-1.95-.82,3.4,3.4,0,0,1-.71-2.3,3.32,3.32,0,0,1,.78-2.28,2.46,2.46,0,0,1,1.92-.88,2.17,2.17,0,0,1,1.78.76,3.22,3.22,0,0,1,.63,2.11Zm-1-.82a2,2,0,0,0-.39-1.29,1.32,1.32,0,0,0-1.07-.46,1.5,1.5,0,0,0-1.13.48,2.23,2.23,0,0,0-.57,1.27Z"/><path class="cls-12" d="M54.85,155.63a12.3,12.3,0,0,0,1.64-3.83,30.26,30.26,0,0,0,.72-4.7l.93.09a29,29,0,0,1-1,5.43,12.47,12.47,0,0,1-1.55,3.45Zm5-8.46.89-.08a22.7,22.7,0,0,0,2.44,8.48l-.86.5A25.71,25.71,0,0,1,59.85,147.17Z"/><path class="cls-12" d="M64,150.94h6.37v.89H64Z"/><path class="cls-12" d="M73.89,150.64v5.7H73V146.27h.91v3.48a17.9,17.9,0,0,1,4.46,1.91l-.45.86A14.53,14.53,0,0,0,73.89,150.64ZM76.16,146l.59-.24a14.77,14.77,0,0,1,.87,2l-.63.26A13.21,13.21,0,0,0,76.16,146Zm1.33-.41.59-.22a10.14,10.14,0,0,1,.83,2l-.61.25A11.81,11.81,0,0,0,77.49,145.61Z"/><path class="cls-12" d="M83.87,147.84h3q0,4.2-1.31,6.13A6.93,6.93,0,0,1,82,156.41l-.48-.7a6,6,0,0,0,3.39-2.41,9.11,9.11,0,0,0,1-4.66h-5v3H80v-3.77h3v-1.75h.9Z"/><path class="cls-12" d="M90.62,149.72H88.5v-.78h5.2v.78H91.5V155h2.56v.78H88.14V155h2.48Z"/><path class="cls-12" d="M95.31,146.93h7.62a8.5,8.5,0,0,1-.72,2.65,5.74,5.74,0,0,1-1.41,1.81l-.69-.58a5.24,5.24,0,0,0,1.23-1.51,4.12,4.12,0,0,0,.5-1.56H95.31Zm.34,8.66a4.57,4.57,0,0,0,2.11-1.8,6.51,6.51,0,0,0,.64-3.18v-1.89h.9v1.92a6.87,6.87,0,0,1-.94,3.85,5.83,5.83,0,0,1-2.14,1.79Z"/></g></svg>